<svg xmlns="http://www.w3.org/2000/svg" xmlns:xlink="http://www.w3.org/1999/xlink" width="500" zoomAndPan="magnify" viewBox="0 0 375 374.999991" height="500" preserveAspectRatio="xMidYMid meet" version="1.0"><defs><g/><clipPath id="a66bc8fd89"><path d="M 112.5 135 L 179 135 L 179 235.972656 L 112.5 235.972656 Z M 112.5 135 " clip-rule="nonzero"/></clipPath><clipPath id="0abaa651c3"><path d="M 196 135 L 262.5 135 L 262.5 235.972656 L 196 235.972656 Z M 196 135 " clip-rule="nonzero"/></clipPath></defs><rect x="-37.5" width="450" fill="#ffffff" y="-37.499999" height="449.999989" fill-opacity="1"/><rect x="-37.5" width="450" fill="#ffffff" y="-37.499999" height="449.999989" fill-opacity="1"/><g clip-path="url(#a66bc8fd89)"><path fill="#490d0d" d="M 122.167969 135.542969 L 116.464844 135.621094 C 115.523438 135.925781 114.703125 136.425781 114.007812 137.125 C 113.308594 137.824219 112.804688 138.640625 112.5 139.582031 L 112.660156 230.691406 C 112.761719 232.117188 113.289062 233.359375 114.246094 234.417969 C 115.597656 235.105469 117.023438 235.554688 118.523438 235.765625 C 120.839844 235.164062 123.265625 234.601562 125.796875 234.089844 C 130.519531 233.132812 135.277344 232.421875 140.074219 231.960938 C 148.980469 231.230469 157.867188 231.371094 166.746094 232.382812 C 171.066406 232.878906 175.125 233.554688 178.898438 234.339844 C 174.441406 230.351562 169.476562 227.152344 164 224.753906 C 161.230469 223.542969 158.378906 222.5625 155.445312 221.820312 C 151.695312 221.1875 148.523438 220.761719 146.085938 220.476562 C 142.859375 220.097656 141.246094 219.90625 140.164062 219.90625 C 138.304688 219.902344 136.902344 220.066406 134.769531 219.679688 C 133.753906 219.496094 132.757812 219.226562 131.792969 218.863281 C 130.417969 218.375 127.183594 217.015625 124.707031 213.660156 C 123.484375 211.996094 122.648438 210.160156 122.195312 208.144531 Z M 122.167969 135.542969 " fill-opacity="1" fill-rule="nonzero"/></g><path fill="#490d0d" d="M 130.804688 120.488281 C 131.128906 119.496094 131.667969 118.640625 132.429688 117.921875 C 133.1875 117.207031 134.070312 116.714844 135.082031 116.445312 C 143.464844 115.988281 150.21875 117.210938 154.652344 118.347656 C 159.90625 119.699219 168.371094 121.972656 176.546875 128.964844 C 180.371094 132.246094 183.585938 136.046875 186.183594 140.367188 C 186.289062 170.210938 186.394531 200.054688 186.5 229.902344 C 179.34375 222.585938 172.257812 218.878906 167.800781 216.988281 C 161.605469 214.355469 156.160156 213.398438 151.796875 212.632812 C 146.398438 211.679688 140.960938 211.207031 135.476562 211.207031 C 135.039062 211.132812 133.515625 210.832031 132.308594 209.460938 C 131.542969 208.589844 131.105469 207.574219 130.996094 206.421875 C 130.929688 177.773438 130.867188 149.132812 130.804688 120.488281 Z M 130.804688 120.488281 " fill-opacity="1" fill-rule="nonzero"/><g clip-path="url(#0abaa651c3)"><path fill="#490d0d" d="M 252.839844 135.542969 L 258.542969 135.621094 C 259.480469 135.925781 260.300781 136.425781 261 137.125 C 261.699219 137.824219 262.199219 138.640625 262.503906 139.582031 L 262.34375 230.691406 C 262.246094 232.117188 261.714844 233.359375 260.761719 234.417969 C 259.410156 235.105469 257.984375 235.550781 256.484375 235.765625 C 254.167969 235.164062 251.738281 234.601562 249.210938 234.089844 C 244.488281 233.132812 239.726562 232.421875 234.929688 231.960938 C 226.027344 231.230469 217.136719 231.371094 208.261719 232.382812 C 203.9375 232.878906 199.882812 233.554688 196.109375 234.339844 C 200.5625 230.351562 205.527344 227.152344 211.003906 224.753906 C 213.777344 223.542969 216.628906 222.5625 219.558594 221.820312 C 223.3125 221.1875 226.484375 220.761719 228.917969 220.476562 C 232.144531 220.097656 233.757812 219.90625 234.84375 219.90625 C 236.699219 219.902344 238.105469 220.066406 240.238281 219.679688 C 241.253906 219.496094 242.246094 219.226562 243.214844 218.863281 C 244.585938 218.375 247.824219 217.015625 250.296875 213.660156 C 251.519531 211.996094 252.359375 210.160156 252.8125 208.144531 Z M 252.839844 135.542969 " fill-opacity="1" fill-rule="nonzero"/></g><path fill="#490d0d" d="M 244.203125 120.488281 C 243.878906 119.496094 243.335938 118.640625 242.578125 117.921875 C 241.816406 117.207031 240.933594 116.714844 239.925781 116.445312 C 231.539062 115.988281 224.785156 117.210938 220.355469 118.347656 C 215.101562 119.699219 206.632812 121.972656 198.460938 128.964844 C 194.632812 132.246094 191.421875 136.046875 188.820312 140.367188 C 188.714844 170.210938 188.609375 200.054688 188.503906 229.902344 C 195.660156 222.585938 202.75 218.878906 207.203125 216.988281 C 213.398438 214.355469 218.84375 213.398438 223.207031 212.632812 C 228.605469 211.679688 234.046875 211.207031 239.527344 211.207031 C 239.96875 211.132812 241.488281 210.832031 242.699219 209.460938 C 243.460938 208.589844 243.898438 207.574219 244.011719 206.421875 C 244.074219 177.773438 244.140625 149.132812 244.203125 120.488281 Z M 244.203125 120.488281 " fill-opacity="1" fill-rule="nonzero"/><g fill="#490d0d" fill-opacity="1"><g transform="translate(175.550033, 218.040236)"><g><path d="M 16.6875 0 L 7.21875 0 L 7.21875 -77.078125 L 16.6875 -77.078125 Z M 16.6875 0 "/></g></g></g><g fill="#490d0d" fill-opacity="1"><g transform="translate(183.515779, 229.728994)"><g><path d="M 5.5625 0 L 2.40625 0 L 2.40625 -25.703125 L 5.5625 -25.703125 Z M 5.5625 0 "/></g></g></g><path stroke-linecap="butt" transform="matrix(0.75, 0, 0, 0.75, 155.095307, 115.330291)" fill="none" stroke-linejoin="miter" d="M 74.372929 98.663785 C 74.372929 97.799202 74.128137 96.257535 74.003137 94.74191 L 85.398971 81.986701 L 82.096888 78.804409 C 74.89897 85.632535 67.175012 80.070034 51.732302 80.070034 L 35.305218 96.533577 L 38.576051 99.809619 C 42.622927 95.887744 46.826052 97.52316 54.388552 98.418994 L 54.388552 105.366911 C 51.732302 108.304411 48.95626 109.043994 45.034385 107.653369 C 34.529176 104.101286 26.685426 92.33566 23.534384 82.606493 C 19.242717 67.038783 20.878134 57.679408 27.581259 52.122116 C 40.73751 41.741907 45.154177 67.564825 58.315636 68.179408 L 79.190637 55.148158 L 76.659387 50.976282 C 65.539595 57.059616 63.628136 33.278364 47.195844 33.278364 C 40.492718 33.278364 32.122926 36.799198 22.268759 45.29399 C 10.253133 56.043991 -1.512493 69.445033 2.164591 90.205451 C 6.086466 109.168994 19.737508 126.002329 36.320843 126.002329 C 45.034385 126.002329 51.242719 121.460662 56.060428 115.127328 C 57.820844 120.195037 60.846886 123.835662 64.39897 126.002329 L 85.398971 108.918994 L 82.341679 104.872119 C 76.414596 109.288786 75.143762 105.892953 74.372929 98.663785 Z M 74.372929 98.663785 " stroke="#f7fff8" stroke-width="4.744275" stroke-opacity="1" stroke-miterlimit="4"/></svg>