<svg xmlns="http://www.w3.org/2000/svg" xmlns:xlink="http://www.w3.org/1999/xlink" width="446" zoomAndPan="magnify" viewBox="0 0 334.5 94.499997" height="126" preserveAspectRatio="xMidYMid meet" version="1.0"><defs><g/><clipPath id="d8c7bfc252"><path d="M 28 0 L 90.902344 0 L 90.902344 88 L 28 88 Z M 28 0 " clip-rule="nonzero"/></clipPath><clipPath id="a30c99be61"><path d="M 0.886719 21 L 81 21 L 81 93.257812 L 0.886719 93.257812 Z M 0.886719 21 " clip-rule="nonzero"/></clipPath><clipPath id="53a8f4ed21"><path d="M 242.617188 0 L 305 0 L 305 88 L 242.617188 88 Z M 242.617188 0 " clip-rule="nonzero"/></clipPath><clipPath id="e14882b31b"><path d="M 253 21 L 332.886719 21 L 332.886719 93.257812 L 253 93.257812 Z M 253 21 " clip-rule="nonzero"/></clipPath></defs><g clip-path="url(#d8c7bfc252)"><path fill="#b91c1c" d="M 84.726562 24.257812 C 79.121094 14.671875 60.121094 1.980469 47.453125 0.0273438 C 41.273438 16.875 35.09375 33.722656 28.914062 50.570312 C 56.90625 55.078125 74.757812 70.722656 91.160156 87.960938 C 75.980469 67.488281 57.882812 50.507812 36.730469 45.265625 L 49.644531 5.648438 C 63.371094 7.390625 76.972656 17.425781 84.726562 24.257812 Z M 84.726562 24.257812 " fill-opacity="1" fill-rule="evenodd"/></g><path fill="#8d1717" d="M 40.914062 13.410156 C 38.339844 12.335938 35.765625 11.449219 33.3125 10.753906 C 27.132812 27.597656 20.953125 44.445312 14.773438 61.292969 C 42.765625 65.800781 68 74.46875 85.007812 90.601562 C 69.480469 70.546875 43.742188 61.230469 22.589844 55.988281 L 35.5 16.371094 C 36.804688 16.671875 38.125 17.011719 39.457031 17.382812 Z M 40.914062 13.410156 " fill-opacity="1" fill-rule="evenodd"/><g clip-path="url(#a30c99be61)"><path fill="#490d0d" d="M 26.859375 23.898438 C 24.269531 22.976562 21.671875 22.183594 19.167969 21.476562 C 12.988281 38.324219 6.808594 55.171875 0.628906 72.015625 C 28.339844 74.199219 61.398438 80.882812 80.125 93.425781 C 61.117188 76.035156 30.679688 70.085938 8.449219 66.710938 L 21.363281 27.09375 C 22.679688 27.398438 24.011719 27.707031 25.347656 28.019531 Z M 26.859375 23.898438 " fill-opacity="1" fill-rule="evenodd"/></g><g fill="#b91c1c" fill-opacity="1"><g transform="translate(74.366297, 59.879329)"><g><path d="M 27.183594 -9.984375 C 27.183594 -10.308594 27.09375 -10.863281 27.046875 -11.417969 L 31.207031 -16.089844 L 30.003906 -17.246094 C 27.371094 -14.75 24.550781 -16.78125 18.910156 -16.78125 L 12.898438 -10.773438 L 14.101562 -9.570312 C 15.582031 -11.003906 17.105469 -10.402344 19.878906 -10.078125 L 19.878906 -7.535156 C 18.910156 -6.472656 17.890625 -6.195312 16.457031 -6.703125 C 12.621094 -8 9.753906 -12.296875 8.597656 -15.859375 C 7.027344 -21.542969 7.628906 -24.964844 10.078125 -27 C 14.886719 -30.792969 16.503906 -21.359375 21.3125 -21.128906 L 28.941406 -25.890625 L 28.015625 -27.417969 C 23.949219 -25.195312 23.253906 -33.890625 17.246094 -33.890625 C 14.792969 -33.890625 11.742188 -32.59375 8.136719 -29.496094 C 3.746094 -25.566406 -0.554688 -20.667969 0.785156 -13.082031 C 2.21875 -6.148438 7.210938 0 13.269531 0 C 16.457031 0 18.722656 -1.664062 20.480469 -3.976562 C 21.128906 -2.125 22.238281 -0.785156 23.53125 0 L 31.207031 -6.242188 L 30.097656 -7.722656 C 27.925781 -6.101562 27.460938 -7.351562 27.183594 -9.984375 Z M 27.183594 -9.984375 "/></g></g></g><g fill="#b91c1c" fill-opacity="1"><g transform="translate(105.942745, 59.879329)"><g><path d="M 16.042969 -14.980469 L 22.054688 -19.972656 C 22.054688 -19.972656 18.722656 -25.613281 15.210938 -25.613281 L 10.496094 -21.082031 C 10.03125 -23.023438 8.96875 -24.273438 7.167969 -25.613281 L -1.109375 -18.679688 L -0.324219 -17.199219 C 2.402344 -18.957031 3.46875 -18.03125 3.558594 -15.210938 L 3.558594 -8 C 3.515625 -3.976562 5.085938 -1.292969 7.167969 0 L 14.792969 -6.148438 L 13.730469 -7.582031 C 11.558594 -6.054688 10.820312 -7.535156 10.863281 -9.894531 L 10.820312 -17.382812 L 10.820312 -18.078125 L 11.097656 -18.355469 C 13.039062 -20.15625 14.75 -17.152344 16.042969 -14.980469 Z M 16.042969 -14.980469 "/></g></g></g><g fill="#b91c1c" fill-opacity="1"><g transform="translate(126.331055, 59.879329)"><g><path d="M 1.015625 -29.171875 L 2.726562 -26.769531 L 10.125 -31.53125 L 7.859375 -34.675781 Z M 13.730469 -7.628906 C 11.558594 -6.054688 10.773438 -7.535156 10.863281 -9.894531 L 10.773438 -17.382812 C 10.863281 -21.777344 9.941406 -23.578125 7.167969 -25.613281 L -1.109375 -18.722656 L -0.371094 -17.246094 C 2.359375 -18.910156 3.421875 -18.03125 3.558594 -15.210938 L 3.558594 -8 C 3.558594 -3.929688 5.132812 -1.25 7.167969 0 L 14.792969 -6.148438 Z M 13.730469 -7.628906 "/></g></g></g><g fill="#b91c1c" fill-opacity="1"><g transform="translate(140.57051, 59.879329)"><g><path d="M 39.296875 -7.675781 C 37.125 -6.101562 36.386719 -7.535156 36.386719 -9.984375 L 36.386719 -17.335938 C 36.429688 -21.820312 35.460938 -25.566406 32.734375 -25.613281 C 30.144531 -25.660156 26.675781 -21.960938 23.71875 -16.921875 L 23.71875 -17.335938 C 23.765625 -21.730469 23.164062 -25.613281 20.066406 -25.613281 C 17.058594 -25.613281 13.824219 -21.730469 10.820312 -16.597656 L 10.820312 -17.335938 C 10.910156 -21.730469 9.984375 -23.578125 7.210938 -25.613281 L -1.109375 -18.679688 L -0.324219 -17.246094 C 2.402344 -18.910156 3.515625 -18.078125 3.558594 -15.164062 L 3.558594 -8.042969 C 3.558594 -3.976562 5.179688 -1.292969 7.210938 0 L 14.792969 -6.148438 L 13.730469 -7.628906 C 11.605469 -6.054688 10.820312 -7.535156 10.910156 -9.894531 L 10.910156 -11.097656 C 12.992188 -15.210938 14.195312 -16.96875 15.210938 -16.828125 C 16.78125 -16.644531 16.367188 -13.871094 16.414062 -12.804688 L 16.414062 -8.042969 C 16.414062 -3.976562 17.984375 -1.292969 20.066406 0 L 27.648438 -6.148438 L 26.582031 -7.628906 C 24.457031 -6.054688 23.71875 -7.535156 23.765625 -9.894531 L 23.71875 -11.417969 C 25.75 -15.304688 26.90625 -16.96875 27.925781 -16.875 C 29.496094 -16.734375 29.035156 -13.917969 29.125 -12.851562 L 29.125 -8.042969 C 29.125 -4.023438 30.652344 -1.25 32.734375 0 L 40.359375 -6.195312 Z M 39.296875 -7.675781 "/></g></g></g><g fill="#b91c1c" fill-opacity="1"><g transform="translate(180.376247, 59.879329)"><g><path d="M 11.789062 -25.613281 L 3.421875 -18.722656 C -3.144531 -12.714844 2.589844 0.046875 9.570312 0 L 18.679688 -7.445312 C 26.121094 -14.65625 21.128906 -25.613281 11.789062 -25.613281 Z M 14.101562 -6.332031 C 8.691406 -6.332031 5.410156 -16.875 8.277344 -20.019531 C 13.730469 -20.019531 15.902344 -9.847656 14.101562 -6.332031 Z M 14.101562 -6.332031 "/></g></g></g><g fill="#b91c1c" fill-opacity="1"><g transform="translate(203.214854, 59.879329)"><g><path d="M 1.015625 -29.171875 L 2.726562 -26.769531 L 10.125 -31.53125 L 7.859375 -34.675781 Z M 13.730469 -7.628906 C 11.558594 -6.054688 10.773438 -7.535156 10.863281 -9.894531 L 10.773438 -17.382812 C 10.863281 -21.777344 9.941406 -23.578125 7.167969 -25.613281 L -1.109375 -18.722656 L -0.371094 -17.246094 C 2.359375 -18.910156 3.421875 -18.03125 3.558594 -15.210938 L 3.558594 -8 C 3.558594 -3.929688 5.132812 -1.25 7.167969 0 L 14.792969 -6.148438 Z M 13.730469 -7.628906 "/></g></g></g><g fill="#b91c1c" fill-opacity="1"><g transform="translate(217.454309, 59.879329)"><g><path d="M 16.042969 -14.980469 L 22.054688 -19.972656 C 22.054688 -19.972656 18.722656 -25.613281 15.210938 -25.613281 L 10.496094 -21.082031 C 10.03125 -23.023438 8.96875 -24.273438 7.167969 -25.613281 L -1.109375 -18.679688 L -0.324219 -17.199219 C 2.402344 -18.957031 3.46875 -18.03125 3.558594 -15.210938 L 3.558594 -8 C 3.515625 -3.976562 5.085938 -1.292969 7.167969 0 L 14.792969 -6.148438 L 13.730469 -7.582031 C 11.558594 -6.054688 10.820312 -7.535156 10.863281 -9.894531 L 10.820312 -17.382812 L 10.820312 -18.078125 L 11.097656 -18.355469 C 13.039062 -20.15625 14.75 -17.152344 16.042969 -14.980469 Z M 16.042969 -14.980469 "/></g></g></g><g fill="#b91c1c" fill-opacity="1"><g transform="translate(237.84262, 59.879329)"><g><path d="M 10.496094 -9.386719 L 20.25 -17.476562 C 20.25 -20.527344 15.765625 -25.613281 12.25 -25.613281 C 8.597656 -25.613281 2.914062 -19.277344 1.710938 -17.292969 C -1.527344 -11.464844 4.808594 -0.140625 10.03125 0 L 19.832031 -7.488281 L 18.863281 -8.96875 C 15.257812 -6.609375 12.527344 -7.351562 10.496094 -9.386719 Z M 7.90625 -20.34375 C 9.707031 -21.542969 12.527344 -17.753906 13.316406 -14.933594 L 9.386719 -11.605469 C 7.398438 -14.75 6.011719 -18.957031 7.90625 -20.34375 Z M 7.90625 -20.34375 "/></g></g></g><g clip-path="url(#53a8f4ed21)"><path fill="#b91c1c" d="M 249.050781 24.257812 C 254.65625 14.671875 273.65625 1.980469 286.324219 0.0273438 C 292.503906 16.875 298.683594 33.722656 304.863281 50.570312 C 276.871094 55.078125 259.019531 70.722656 242.617188 87.960938 C 257.796875 67.488281 275.890625 50.507812 297.042969 45.265625 L 284.132812 5.648438 C 270.40625 7.390625 256.804688 17.425781 249.050781 24.257812 Z M 249.050781 24.257812 " fill-opacity="1" fill-rule="evenodd"/></g><path fill="#8d1717" d="M 292.863281 13.410156 C 295.4375 12.335938 298.007812 11.449219 300.464844 10.753906 C 306.644531 27.597656 312.824219 44.445312 319.003906 61.292969 C 291.011719 65.800781 265.777344 74.46875 248.769531 90.601562 C 264.296875 70.546875 290.03125 61.230469 311.1875 55.988281 L 298.273438 16.371094 C 296.972656 16.671875 295.648438 17.011719 294.320312 17.382812 Z M 292.863281 13.410156 " fill-opacity="1" fill-rule="evenodd"/><g clip-path="url(#e14882b31b)"><path fill="#490d0d" d="M 306.917969 23.898438 C 309.507812 22.976562 312.101562 22.183594 314.605469 21.476562 C 320.785156 38.324219 326.964844 55.171875 333.144531 72.015625 C 305.4375 74.199219 272.375 80.882812 253.652344 93.425781 C 272.65625 76.035156 303.097656 70.085938 325.328125 66.710938 L 312.414062 27.09375 C 311.097656 27.398438 309.761719 27.707031 308.429688 28.019531 Z M 306.917969 23.898438 " fill-opacity="1" fill-rule="evenodd"/></g></svg>