<?xml version="1.0" encoding="UTF-8"?>
<svg xmlns="http://www.w3.org/2000/svg" xmlns:xlink="http://www.w3.org/1999/xlink" width="75px" height="75px" viewBox="0 0 450 338" version="1.1">
<defs>
<clipPath id="clip1">
  <path d="M 146 129.371094 L 152 129.371094 L 152 208.402344 L 146 208.402344 Z M 146 129.371094 "/>
</clipPath>
<clipPath id="clip2">
  <path d="M 163.152344 129.566406 L 393.089844 129.566406 L 393.089844 179.664062 L 163.152344 179.664062 Z M 163.152344 129.566406 "/>
</clipPath>
<clipPath id="clip3">
  <path d="M 163.152344 191.492188 L 298.148438 191.492188 L 298.148438 208.203125 L 163.152344 208.203125 Z M 163.152344 191.492188 "/>
</clipPath>
<clipPath id="clip4">
  <path d="M 56.5 129.566406 L 116 129.566406 L 116 208.203125 L 56.5 208.203125 Z M 56.5 129.566406 "/>
</clipPath>
<clipPath id="clip5">
  <path d="M 118 129.566406 L 135.023438 129.566406 L 135.023438 208.203125 L 118 208.203125 Z M 118 129.566406 "/>
</clipPath>
</defs>
<g id="surface1">
<rect x="0" y="0" width="450" height="338" style="fill:rgb(100%,100%,100%);fill-opacity:1;stroke:none;"/>
<g clip-path="url(#clip1)" clip-rule="nonzero">
<path style=" stroke:none;fill-rule:nonzero;fill:rgb(77.254902%,43.137255%,20%);fill-opacity:1;" d="M 149.085938 129.371094 C 150.332031 129.371094 151.34375 130.878906 151.34375 132.742188 L 151.34375 205.03125 C 151.34375 206.890625 150.332031 208.402344 149.085938 208.402344 C 147.839844 208.402344 146.832031 206.890625 146.832031 205.03125 L 146.832031 132.742188 C 146.832031 130.878906 147.839844 129.371094 149.085938 129.371094 Z M 149.085938 129.371094 "/>
</g>
<g clip-path="url(#clip2)" clip-rule="nonzero">
<path style=" stroke:none;fill-rule:nonzero;fill:rgb(77.254902%,43.137255%,20%);fill-opacity:1;" d="M 163.164062 179.664062 L 168.023438 154.589844 C 168.234375 153.566406 168.386719 152.613281 168.476562 151.730469 C 168.5625 150.851562 168.605469 150.054688 168.605469 149.351562 C 168.605469 147.410156 168.425781 146 168.074219 145.117188 C 167.722656 144.238281 167.460938 143.65625 167.28125 143.375 L 172.089844 141.46875 C 172.476562 141.960938 172.804688 142.5625 173.074219 143.265625 C 173.332031 143.972656 173.464844 144.871094 173.464844 145.964844 C 173.464844 146.246094 173.445312 146.582031 173.410156 146.96875 C 173.375 147.359375 173.339844 147.765625 173.304688 148.1875 C 173.269531 148.609375 173.222656 149.023438 173.167969 149.425781 C 173.117188 149.835938 173.074219 150.164062 173.039062 150.410156 L 173.726562 148.875 C 174.324219 147.464844 174.976562 146.289062 175.683594 145.351562 C 176.386719 144.421875 177.136719 143.671875 177.933594 143.109375 C 178.722656 142.542969 179.546875 142.144531 180.402344 141.914062 C 181.269531 141.6875 182.160156 141.574219 183.078125 141.574219 C 184.34375 141.574219 185.417969 141.820312 186.300781 142.316406 C 187.179688 142.808594 187.902344 143.46875 188.464844 144.292969 C 189.027344 145.125 189.445312 146.0625 189.710938 147.097656 C 189.972656 148.140625 190.101562 149.210938 190.101562 150.304688 C 190.101562 152.808594 189.777344 155.152344 189.128906 157.339844 C 188.476562 159.527344 187.515625 161.4375 186.246094 163.074219 C 184.980469 164.71875 183.421875 166.003906 181.578125 166.9375 C 179.722656 167.875 177.617188 168.34375 175.257812 168.34375 C 174.554688 168.34375 173.859375 168.300781 173.167969 168.214844 C 172.484375 168.125 171.84375 168.007812 171.246094 167.867188 L 169.132812 178.605469 Z M 172.035156 163.742188 C 172.566406 163.917969 173.105469 164.046875 173.652344 164.132812 C 174.195312 164.222656 174.695312 164.269531 175.152344 164.269531 C 176.738281 164.269531 178.078125 163.816406 179.167969 162.914062 C 180.261719 162.019531 181.152344 160.875 181.839844 159.476562 C 182.523438 158.085938 183.023438 156.554688 183.339844 154.875 C 183.65625 153.203125 183.816406 151.609375 183.816406 150.089844 C 183.816406 148.539062 183.597656 147.453125 183.160156 146.832031 C 182.71875 146.21875 182.039062 145.914062 181.121094 145.914062 C 180.207031 145.914062 179.34375 146.316406 178.535156 147.128906 C 177.722656 147.941406 176.949219 149.085938 176.210938 150.566406 C 175.46875 152.050781 174.777344 153.8125 174.128906 155.859375 C 173.472656 157.902344 172.863281 160.144531 172.300781 162.578125 Z M 213.503906 143.691406 L 210.4375 148.609375 C 209.980469 148.117188 209.507812 147.710938 209.011719 147.394531 C 208.519531 147.078125 207.867188 146.917969 207.058594 146.917969 C 206.566406 146.917969 206.078125 147.148438 205.601562 147.605469 C 205.128906 148.0625 204.671875 148.671875 204.226562 149.425781 C 203.789062 150.1875 203.378906 151.050781 202.992188 152.015625 C 202.605469 152.992188 202.269531 153.972656 201.988281 154.957031 L 199.453125 167.917969 L 193.535156 167.917969 L 196.230469 154.589844 C 196.441406 153.566406 196.589844 152.613281 196.671875 151.730469 C 196.765625 150.851562 196.8125 150.054688 196.8125 149.351562 C 196.8125 147.410156 196.636719 146 196.28125 145.117188 C 195.929688 144.238281 195.667969 143.65625 195.492188 143.375 L 200.296875 141.46875 C 200.683594 141.960938 201.007812 142.5625 201.269531 143.265625 C 201.535156 143.972656 201.671875 144.871094 201.671875 145.964844 C 201.671875 146.707031 201.605469 147.523438 201.480469 148.421875 C 201.359375 149.324219 201.265625 150.179688 201.195312 150.992188 C 201.933594 147.78125 202.902344 145.402344 204.101562 143.847656 C 205.296875 142.296875 206.882812 141.523438 208.855469 141.523438 C 210.050781 141.523438 211.019531 141.722656 211.761719 142.125 C 212.5 142.535156 213.082031 143.054688 213.503906 143.691406 Z M 222.273438 129.777344 C 223.398438 129.777344 224.226562 130.085938 224.753906 130.699219 C 225.28125 131.320312 225.546875 132.160156 225.546875 133.214844 C 225.546875 134.238281 225.195312 135.144531 224.492188 135.933594 C 223.785156 136.734375 222.835938 137.132812 221.636719 137.132812 C 220.511719 137.132812 219.683594 136.8125 219.15625 136.179688 C 218.625 135.542969 218.363281 134.75 218.363281 133.796875 C 218.363281 132.703125 218.703125 131.757812 219.386719 130.960938 C 220.078125 130.171875 221.039062 129.777344 222.273438 129.777344 Z M 218.414062 168.183594 C 216.832031 168.183594 215.617188 167.777344 214.769531 166.96875 C 213.925781 166.15625 213.503906 165.082031 213.503906 163.742188 C 213.503906 163.246094 213.554688 162.734375 213.660156 162.207031 L 217.675781 141.996094 L 223.488281 141.996094 L 219.683594 161.675781 C 219.648438 161.851562 219.621094 162 219.597656 162.121094 C 219.585938 162.25 219.578125 162.382812 219.578125 162.523438 C 219.578125 163.40625 219.878906 163.847656 220.476562 163.847656 C 221.074219 163.847656 221.65625 163.78125 222.21875 163.65625 C 222.78125 163.535156 223.097656 163.457031 223.167969 163.421875 L 223.167969 167.230469 C 222.78125 167.40625 222.34375 167.566406 221.847656 167.707031 C 221.425781 167.847656 220.921875 167.964844 220.339844 168.058594 C 219.761719 168.140625 219.121094 168.183594 218.414062 168.183594 Z M 266.84375 148.027344 C 266.84375 149.402344 266.667969 150.761719 266.316406 152.101562 C 265.964844 153.441406 265.570312 154.730469 265.132812 155.964844 C 264.6875 157.199219 264.289062 158.386719 263.9375 159.53125 C 263.585938 160.679688 263.410156 161.78125 263.410156 162.839844 C 263.410156 163.546875 263.445312 164.363281 263.515625 165.296875 C 263.585938 166.234375 263.710938 167.109375 263.886719 167.917969 L 257.96875 167.917969 C 257.863281 167.320312 257.804688 166.761719 257.789062 166.246094 C 257.769531 165.738281 257.757812 165.238281 257.757812 164.746094 C 257.757812 163.371094 257.917969 162.011719 258.234375 160.671875 C 258.550781 159.332031 258.902344 158.007812 259.289062 156.703125 C 259.675781 155.398438 260.03125 154.128906 260.347656 152.894531 C 260.664062 151.660156 260.820312 150.480469 260.820312 149.351562 C 260.820312 148.503906 260.640625 147.789062 260.273438 147.203125 C 259.898438 146.625 259.238281 146.335938 258.285156 146.335938 C 257.511719 146.335938 256.71875 146.695312 255.910156 147.414062 C 255.097656 148.140625 254.34375 149.074219 253.636719 150.21875 C 252.933594 151.367188 252.300781 152.648438 251.738281 154.058594 C 251.171875 155.46875 250.769531 156.878906 250.519531 158.292969 L 248.671875 167.917969 L 242.757812 167.917969 L 245.398438 154.589844 C 245.609375 153.566406 245.765625 152.566406 245.875 151.59375 C 245.980469 150.628906 246.03125 149.878906 246.03125 149.351562 C 246.03125 148.503906 245.847656 147.789062 245.480469 147.203125 C 245.109375 146.625 244.445312 146.335938 243.496094 146.335938 C 242.722656 146.335938 241.929688 146.695312 241.117188 147.414062 C 240.308594 148.140625 239.542969 149.074219 238.828125 150.21875 C 238.101562 151.367188 237.457031 152.65625 236.894531 154.082031 C 236.328125 155.511719 235.925781 156.933594 235.679688 158.34375 L 233.828125 167.917969 L 227.914062 167.917969 L 230.605469 154.589844 C 230.820312 153.566406 230.96875 152.613281 231.0625 151.730469 C 231.144531 150.851562 231.1875 150.054688 231.1875 149.351562 C 231.1875 147.410156 231.011719 146 230.660156 145.117188 C 230.308594 144.238281 230.042969 143.65625 229.867188 143.375 L 234.675781 141.46875 C 235.0625 141.960938 235.390625 142.5625 235.65625 143.265625 C 235.917969 143.972656 236.046875 144.871094 236.046875 145.964844 C 236.046875 146.707031 235.988281 147.5 235.867188 148.347656 C 235.742188 149.191406 235.644531 150.019531 235.574219 150.832031 L 236.363281 148.820312 C 237.316406 146.390625 238.578125 144.574219 240.148438 143.375 C 241.710938 142.175781 243.441406 141.574219 245.34375 141.574219 C 247.421875 141.574219 249 142.121094 250.078125 143.214844 C 251.148438 144.308594 251.71875 145.773438 251.789062 147.605469 C 253.761719 143.585938 256.5625 141.574219 260.1875 141.574219 C 262.40625 141.574219 264.074219 142.15625 265.183594 143.320312 C 266.289062 144.484375 266.84375 146.054688 266.84375 148.027344 Z M 270.542969 159.667969 C 270.542969 157.164062 270.867188 154.800781 271.523438 152.578125 C 272.171875 150.355469 273.121094 148.417969 274.375 146.757812 C 275.621094 145.101562 277.160156 143.785156 278.992188 142.8125 C 280.824219 141.847656 282.917969 141.363281 285.277344 141.363281 C 288.027344 141.363281 289.980469 141.875 291.140625 142.898438 C 292.304688 143.921875 292.886719 145.3125 292.886719 147.078125 C 292.886719 148.628906 292.492188 150.039062 291.703125 151.308594 C 290.90625 152.578125 289.796875 153.6875 288.375 154.640625 C 286.945312 155.59375 285.242188 156.359375 283.273438 156.9375 C 281.300781 157.523438 279.132812 157.867188 276.773438 157.972656 C 276.738281 158.292969 276.722656 158.609375 276.722656 158.925781 C 276.722656 159.242188 276.722656 159.542969 276.722656 159.824219 C 276.722656 161.484375 277.074219 162.628906 277.777344 163.265625 C 278.484375 163.898438 279.414062 164.214844 280.578125 164.214844 C 281.28125 164.214844 282.085938 164.109375 282.988281 163.898438 C 283.882812 163.6875 284.75 163.441406 285.597656 163.160156 C 286.546875 162.839844 287.550781 162.46875 288.605469 162.046875 L 289.820312 165.855469 C 288.765625 166.351562 287.65625 166.789062 286.492188 167.179688 C 285.507812 167.53125 284.390625 167.84375 283.144531 168.109375 C 281.890625 168.371094 280.628906 168.5 279.363281 168.5 C 277.707031 168.5 276.316406 168.253906 275.191406 167.761719 C 274.0625 167.265625 273.15625 166.609375 272.476562 165.78125 C 271.785156 164.949219 271.292969 164.003906 270.996094 162.945312 C 270.691406 161.890625 270.542969 160.796875 270.542969 159.667969 Z M 284.0625 145.4375 C 283.253906 145.4375 282.496094 145.671875 281.792969 146.144531 C 281.089844 146.625 280.464844 147.269531 279.921875 148.082031 C 279.375 148.894531 278.886719 149.828125 278.464844 150.886719 C 278.042969 151.941406 277.691406 153.035156 277.410156 154.164062 C 278.992188 154.058594 280.378906 153.800781 281.558594 153.394531 C 282.738281 152.992188 283.722656 152.488281 284.519531 151.890625 C 285.308594 151.289062 285.90625 150.65625 286.3125 149.984375 C 286.714844 149.316406 286.917969 148.664062 286.917969 148.027344 C 286.917969 147.21875 286.699219 146.582031 286.261719 146.125 C 285.816406 145.664062 285.085938 145.4375 284.0625 145.4375 Z M 321.78125 129.566406 L 316.8125 155.328125 C 316.636719 156.316406 316.503906 157.222656 316.414062 158.046875 C 316.328125 158.878906 316.285156 159.632812 316.285156 160.300781 C 316.285156 162.03125 316.503906 163.359375 316.941406 164.289062 C 317.386719 165.230469 317.800781 165.980469 318.1875 166.542969 L 313.433594 168.449219 C 312.90625 167.847656 312.472656 167.109375 312.132812 166.226562 C 311.804688 165.34375 311.636719 164.339844 311.636719 163.210938 C 311.636719 162.753906 311.671875 162.160156 311.742188 161.433594 C 311.8125 160.714844 311.902344 159.894531 312.007812 158.980469 L 311.109375 161.09375 C 310.511719 162.46875 309.859375 163.625 309.15625 164.554688 C 308.449219 165.492188 307.699219 166.246094 306.90625 166.808594 C 306.117188 167.371094 305.289062 167.769531 304.421875 168.003906 C 303.5625 168.230469 302.675781 168.34375 301.761719 168.34375 C 300.492188 168.34375 299.417969 168.097656 298.539062 167.601562 C 297.65625 167.109375 296.933594 166.445312 296.371094 165.613281 C 295.808594 164.789062 295.394531 163.851562 295.125 162.808594 C 294.863281 161.773438 294.734375 160.707031 294.734375 159.613281 C 294.734375 157.109375 295.058594 154.765625 295.707031 152.578125 C 296.359375 150.390625 297.324219 148.476562 298.589844 146.832031 C 299.859375 145.195312 301.40625 143.910156 303.238281 142.972656 C 305.070312 142.039062 307.183594 141.574219 309.578125 141.574219 C 310.035156 141.574219 310.589844 141.597656 311.234375 141.648438 C 311.890625 141.707031 312.675781 141.839844 313.59375 142.050781 L 315.8125 130.625 Z M 303.714844 164.003906 C 304.59375 164.003906 305.476562 163.511719 306.355469 162.523438 C 307.234375 161.535156 308.046875 160.328125 308.785156 158.894531 C 309.523438 157.46875 310.164062 155.9375 310.707031 154.292969 C 311.257812 152.65625 311.671875 151.167969 311.953125 149.828125 L 312.695312 146.175781 C 312.273438 145.964844 311.785156 145.824219 311.234375 145.753906 C 310.695312 145.683594 310.175781 145.648438 309.683594 145.648438 C 308.097656 145.648438 306.75 146.097656 305.636719 146.992188 C 304.53125 147.894531 303.632812 149.039062 302.941406 150.429688 C 302.261719 151.828125 301.765625 153.359375 301.464844 155.03125 C 301.167969 156.710938 301.019531 158.308594 301.019531 159.824219 C 301.019531 161.378906 301.238281 162.460938 301.675781 163.074219 C 302.117188 163.695312 302.796875 164.003906 303.714844 164.003906 Z M 330.972656 164.003906 C 331.851562 164.003906 332.730469 163.511719 333.613281 162.523438 C 334.492188 161.535156 335.300781 160.328125 336.042969 158.894531 C 336.78125 157.46875 337.421875 155.9375 337.964844 154.292969 C 338.515625 152.65625 338.929688 151.167969 339.210938 149.828125 L 339.949219 146.175781 C 339.527344 145.964844 339.042969 145.824219 338.492188 145.753906 C 337.949219 145.683594 337.433594 145.648438 336.941406 145.648438 C 335.355469 145.648438 334.007812 146.097656 332.894531 146.992188 C 331.789062 147.894531 330.890625 149.039062 330.199219 150.429688 C 329.515625 151.828125 329.023438 153.359375 328.71875 155.03125 C 328.425781 156.710938 328.277344 158.308594 328.277344 159.824219 C 328.277344 161.378906 328.496094 162.460938 328.933594 163.074219 C 329.375 163.695312 330.054688 164.003906 330.972656 164.003906 Z M 329.015625 168.34375 C 327.75 168.34375 326.675781 168.097656 325.792969 167.601562 C 324.914062 167.109375 324.191406 166.445312 323.628906 165.613281 C 323.066406 164.789062 322.648438 163.851562 322.382812 162.808594 C 322.121094 161.773438 321.992188 160.707031 321.992188 159.613281 C 321.992188 157.109375 322.316406 154.765625 322.964844 152.578125 C 323.617188 150.390625 324.578125 148.476562 325.847656 146.832031 C 327.113281 145.195312 328.664062 143.910156 330.496094 142.972656 C 332.328125 142.039062 334.441406 141.574219 336.835938 141.574219 C 337.433594 141.574219 338.277344 141.632812 339.371094 141.753906 C 340.460938 141.882812 341.710938 142.246094 343.121094 142.84375 L 346.449219 143.054688 L 344.070312 155.382812 C 343.71875 157.25 343.542969 158.890625 343.542969 160.300781 C 343.542969 162.03125 343.761719 163.359375 344.199219 164.289062 C 344.640625 165.230469 345.058594 165.980469 345.445312 166.542969 L 340.691406 168.449219 C 340.164062 167.847656 339.730469 167.109375 339.390625 166.226562 C 339.058594 165.34375 338.894531 164.339844 338.894531 163.210938 C 338.894531 162.753906 338.929688 162.160156 339 161.433594 C 339.070312 160.714844 339.160156 159.894531 339.265625 158.980469 L 338.367188 161.09375 C 337.765625 162.46875 337.117188 163.625 336.410156 164.554688 C 335.707031 165.492188 334.957031 166.246094 334.160156 166.808594 C 333.371094 167.371094 332.546875 167.769531 331.679688 168.003906 C 330.820312 168.230469 329.933594 168.34375 329.015625 168.34375 Z M 361.863281 141.363281 C 362.953125 141.363281 363.90625 141.492188 364.714844 141.753906 C 365.523438 142.023438 366.210938 142.386719 366.773438 142.84375 C 367.335938 143.304688 367.789062 143.839844 368.125 144.453125 C 368.457031 145.074219 368.695312 145.71875 368.835938 146.390625 L 364.449219 148.132812 C 364.308594 147.816406 364.1875 147.488281 364.082031 147.152344 C 363.976562 146.820312 363.816406 146.519531 363.605469 146.25 C 363.394531 145.988281 363.121094 145.777344 362.792969 145.617188 C 362.453125 145.460938 362.003906 145.382812 361.4375 145.382812 C 360.242188 145.382812 359.390625 145.71875 358.882812 146.390625 C 358.367188 147.058594 358.113281 147.746094 358.113281 148.453125 C 358.113281 148.945312 358.210938 149.386719 358.40625 149.773438 C 358.597656 150.164062 358.832031 150.515625 359.113281 150.832031 C 359.398438 151.148438 359.707031 151.433594 360.042969 151.679688 C 360.375 151.925781 360.683594 152.121094 360.964844 152.261719 L 362.496094 153.105469 C 363.058594 153.425781 363.617188 153.765625 364.164062 154.132812 C 364.707031 154.507812 365.171875 154.957031 365.558594 155.488281 C 365.945312 156.015625 366.265625 156.660156 366.511719 157.414062 C 366.757812 158.175781 366.878906 159.101562 366.878906 160.195312 C 366.878906 161.324219 366.660156 162.390625 366.226562 163.390625 C 365.78125 164.398438 365.136719 165.28125 364.292969 166.035156 C 363.445312 166.796875 362.390625 167.398438 361.121094 167.835938 C 359.855469 168.277344 358.375 168.5 356.683594 168.5 C 355.558594 168.5 354.476562 168.371094 353.441406 168.109375 C 352.398438 167.84375 351.472656 167.550781 350.664062 167.230469 C 349.746094 166.84375 348.867188 166.421875 348.023438 165.960938 L 350.347656 161.78125 C 351.085938 162.242188 351.84375 162.648438 352.617188 163 C 353.25 163.316406 353.949219 163.597656 354.710938 163.847656 C 355.464844 164.09375 356.175781 164.214844 356.84375 164.214844 C 358.183594 164.214844 359.179688 163.917969 359.832031 163.316406 C 360.480469 162.71875 360.804688 162.011719 360.804688 161.199219 C 360.804688 160.003906 360.480469 159.09375 359.832031 158.472656 C 359.179688 157.859375 358.429688 157.320312 357.582031 156.863281 L 356.261719 156.175781 C 355.839844 155.964844 355.382812 155.699219 354.890625 155.382812 C 354.394531 155.066406 353.929688 154.648438 353.496094 154.132812 C 353.050781 153.625 352.6875 152.984375 352.40625 152.207031 C 352.125 151.433594 351.984375 150.480469 351.984375 149.351562 C 351.984375 148.222656 352.195312 147.171875 352.617188 146.199219 C 353.039062 145.230469 353.667969 144.386719 354.5 143.660156 C 355.324219 142.941406 356.351562 142.375 357.582031 141.964844 C 358.816406 141.5625 360.242188 141.363281 361.863281 141.363281 Z M 370.734375 159.667969 C 370.734375 157.164062 371.0625 154.800781 371.71875 152.578125 C 372.367188 150.355469 373.316406 148.417969 374.570312 146.757812 C 375.816406 145.101562 377.355469 143.785156 379.1875 142.8125 C 381.019531 141.847656 383.113281 141.363281 385.472656 141.363281 C 388.21875 141.363281 390.175781 141.875 391.335938 142.898438 C 392.5 143.921875 393.082031 145.3125 393.082031 147.078125 C 393.082031 148.628906 392.6875 150.039062 391.898438 151.308594 C 391.101562 152.578125 389.992188 153.6875 388.570312 154.640625 C 387.140625 155.59375 385.4375 156.359375 383.464844 156.9375 C 381.496094 157.523438 379.328125 157.867188 376.96875 157.972656 C 376.933594 158.292969 376.917969 158.609375 376.917969 158.925781 C 376.917969 159.242188 376.917969 159.542969 376.917969 159.824219 C 376.917969 161.484375 377.269531 162.628906 377.972656 163.265625 C 378.675781 163.898438 379.609375 164.214844 380.773438 164.214844 C 381.476562 164.214844 382.28125 164.109375 383.179688 163.898438 C 384.074219 163.6875 384.945312 163.441406 385.789062 163.160156 C 386.742188 162.839844 387.746094 162.46875 388.800781 162.046875 L 390.015625 165.855469 C 388.960938 166.351562 387.851562 166.789062 386.6875 167.179688 C 385.703125 167.53125 384.585938 167.84375 383.339844 168.109375 C 382.085938 168.371094 380.824219 168.5 379.558594 168.5 C 377.902344 168.5 376.511719 168.253906 375.382812 167.761719 C 374.257812 167.265625 373.351562 166.609375 372.667969 165.78125 C 371.980469 164.949219 371.484375 164.003906 371.191406 162.945312 C 370.886719 161.890625 370.734375 160.796875 370.734375 159.667969 Z M 384.257812 145.4375 C 383.449219 145.4375 382.691406 145.671875 381.988281 146.144531 C 381.28125 146.625 380.660156 147.269531 380.117188 148.082031 C 379.566406 148.894531 379.082031 149.828125 378.660156 150.886719 C 378.238281 151.941406 377.886719 153.035156 377.601562 154.164062 C 379.1875 154.058594 380.570312 153.800781 381.753906 153.394531 C 382.929688 152.992188 383.917969 152.488281 384.714844 151.890625 C 385.5 151.289062 386.101562 150.65625 386.507812 149.984375 C 386.910156 149.316406 387.109375 148.664062 387.109375 148.027344 C 387.109375 147.21875 386.894531 146.582031 386.457031 146.125 C 386.011719 145.664062 385.28125 145.4375 384.257812 145.4375 Z M 384.257812 145.4375 "/>
</g>
<g clip-path="url(#clip3)" clip-rule="nonzero">
<path style=" stroke:none;fill-rule:nonzero;fill:rgb(77.254902%,43.137255%,20%);fill-opacity:1;" d="M 163.160156 204.285156 L 165.453125 192.480469 L 172.238281 192.480469 L 171.9375 193.960938 L 167.195312 193.960938 L 166.542969 197.351562 L 170.367188 197.351562 L 170.050781 198.816406 L 166.261719 198.816406 L 165.488281 202.804688 L 170.367188 202.804688 L 170.367188 204.285156 Z M 175.832031 202.785156 L 175.832031 204.058594 C 175.679688 204.117188 175.507812 204.167969 175.320312 204.214844 C 175.15625 204.261719 174.960938 204.300781 174.730469 204.332031 C 174.5 204.359375 174.253906 204.375 173.980469 204.375 C 173.429688 204.375 173.019531 204.238281 172.75 203.96875 C 172.476562 203.699219 172.34375 203.339844 172.34375 202.890625 C 172.34375 202.726562 172.359375 202.5625 172.394531 202.398438 L 174.457031 191.84375 L 176.449219 191.492188 L 174.40625 202.203125 C 174.394531 202.261719 174.382812 202.3125 174.375 202.351562 C 174.371094 202.394531 174.371094 202.4375 174.371094 202.484375 C 174.371094 202.78125 174.527344 202.925781 174.84375 202.925781 C 175.09375 202.925781 175.3125 202.90625 175.503906 202.863281 C 175.699219 202.824219 175.808594 202.796875 175.832031 202.785156 Z M 176.976562 201.53125 C 176.976562 200.699219 177.085938 199.910156 177.300781 199.167969 C 177.519531 198.425781 177.839844 197.78125 178.253906 197.226562 C 178.667969 196.671875 179.183594 196.234375 179.796875 195.910156 C 180.410156 195.585938 181.109375 195.425781 181.894531 195.425781 C 182.8125 195.425781 183.464844 195.597656 183.851562 195.9375 C 184.238281 196.28125 184.429688 196.746094 184.429688 197.332031 C 184.429688 197.851562 184.296875 198.320312 184.035156 198.746094 C 183.769531 199.167969 183.398438 199.539062 182.925781 199.855469 C 182.449219 200.175781 181.882812 200.429688 181.226562 200.621094 C 180.566406 200.816406 179.84375 200.933594 179.054688 200.96875 C 179.042969 201.074219 179.039062 201.179688 179.039062 201.285156 C 179.039062 201.390625 179.039062 201.492188 179.039062 201.585938 C 179.039062 202.140625 179.15625 202.523438 179.390625 202.734375 C 179.628906 202.945312 179.9375 203.050781 180.328125 203.050781 C 180.5625 203.050781 180.828125 203.015625 181.125 202.945312 C 181.425781 202.875 181.71875 202.792969 182 202.699219 C 182.316406 202.59375 182.652344 202.46875 183.003906 202.328125 L 183.410156 203.597656 C 183.058594 203.761719 182.6875 203.910156 182.300781 204.039062 C 181.972656 204.15625 181.597656 204.261719 181.179688 204.351562 C 180.761719 204.4375 180.339844 204.480469 179.921875 204.480469 C 179.367188 204.480469 178.902344 204.398438 178.523438 204.234375 C 178.148438 204.070312 177.847656 203.847656 177.621094 203.574219 C 177.390625 203.296875 177.226562 202.980469 177.125 202.628906 C 177.027344 202.273438 176.976562 201.910156 176.976562 201.53125 Z M 181.488281 196.785156 C 181.21875 196.785156 180.964844 196.863281 180.726562 197.023438 C 180.492188 197.183594 180.285156 197.398438 180.105469 197.667969 C 179.921875 197.9375 179.761719 198.25 179.621094 198.601562 C 179.476562 198.957031 179.359375 199.320312 179.269531 199.699219 C 179.796875 199.664062 180.257812 199.578125 180.652344 199.441406 C 181.046875 199.304688 181.375 199.136719 181.636719 198.9375 C 181.902344 198.738281 182.101562 198.527344 182.238281 198.304688 C 182.375 198.078125 182.441406 197.863281 182.441406 197.648438 C 182.441406 197.378906 182.367188 197.167969 182.21875 197.015625 C 182.074219 196.863281 181.832031 196.785156 181.488281 196.785156 Z M 191.214844 195.9375 L 192.90625 195.515625 C 193.035156 195.773438 193.125 196.0625 193.171875 196.386719 C 193.21875 196.710938 193.242188 197.015625 193.242188 197.296875 C 193.242188 197.863281 193.183594 198.433594 193.066406 199.007812 C 192.949219 199.585938 192.78125 200.140625 192.5625 200.675781 C 192.347656 201.210938 192.082031 201.710938 191.769531 202.167969 C 191.457031 202.628906 191.109375 203.023438 190.722656 203.351562 C 190.273438 203.726562 189.808594 204 189.320312 204.171875 C 188.832031 204.339844 188.222656 204.425781 187.496094 204.425781 C 186.753906 204.425781 186.191406 204.265625 185.804688 203.941406 C 185.417969 203.617188 185.222656 203.109375 185.222656 202.414062 C 185.222656 202.332031 185.226562 202.222656 185.238281 202.085938 C 185.25 201.953125 185.265625 201.816406 185.285156 201.675781 C 185.300781 201.53125 185.320312 201.398438 185.339844 201.269531 C 185.355469 201.140625 185.367188 201.03125 185.382812 200.949219 L 186.402344 195.636719 L 188.324219 195.636719 L 187.320312 200.898438 C 187.308594 200.957031 187.296875 201.035156 187.285156 201.132812 C 187.273438 201.234375 187.261719 201.339844 187.25 201.445312 C 187.238281 201.550781 187.226562 201.652344 187.214844 201.746094 C 187.203125 201.839844 187.195312 201.910156 187.195312 201.957031 C 187.195312 202.285156 187.277344 202.550781 187.441406 202.75 C 187.605469 202.949219 187.847656 203.050781 188.164062 203.050781 C 188.566406 203.050781 188.957031 202.855469 189.339844 202.46875 C 189.71875 202.082031 190.058594 201.59375 190.351562 201.011719 C 190.644531 200.429688 190.878906 199.792969 191.054688 199.105469 C 191.230469 198.417969 191.320312 197.773438 191.320312 197.171875 C 191.320312 197.019531 191.3125 196.808594 191.296875 196.539062 C 191.277344 196.269531 191.25 196.066406 191.214844 195.9375 Z M 197.207031 202.980469 C 197.5 202.980469 197.792969 202.816406 198.085938 202.484375 C 198.382812 202.15625 198.652344 201.753906 198.898438 201.277344 C 199.144531 200.800781 199.359375 200.289062 199.542969 199.738281 C 199.722656 199.195312 199.863281 198.699219 199.957031 198.25 L 200.203125 197.03125 C 200.0625 196.960938 199.902344 196.914062 199.71875 196.890625 C 199.535156 196.867188 199.363281 196.855469 199.199219 196.855469 C 198.667969 196.855469 198.21875 197.003906 197.851562 197.304688 C 197.480469 197.605469 197.179688 197.988281 196.953125 198.453125 C 196.722656 198.917969 196.558594 199.429688 196.460938 199.988281 C 196.359375 200.546875 196.308594 201.082031 196.308594 201.585938 C 196.308594 202.105469 196.382812 202.464844 196.53125 202.667969 C 196.675781 202.875 196.902344 202.980469 197.207031 202.980469 Z M 196.554688 204.425781 C 196.132812 204.425781 195.773438 204.34375 195.480469 204.179688 C 195.183594 204.015625 194.945312 203.792969 194.757812 203.515625 C 194.570312 203.242188 194.429688 202.929688 194.34375 202.582031 C 194.253906 202.234375 194.210938 201.878906 194.210938 201.515625 C 194.210938 200.679688 194.320312 199.898438 194.539062 199.167969 C 194.753906 198.4375 195.074219 197.800781 195.496094 197.25 C 195.917969 196.707031 196.4375 196.277344 197.046875 195.960938 C 197.660156 195.652344 198.363281 195.496094 199.164062 195.496094 C 199.363281 195.496094 199.644531 195.515625 200.007812 195.558594 C 200.371094 195.597656 200.789062 195.71875 201.257812 195.921875 L 202.371094 195.992188 L 201.578125 200.101562 C 201.460938 200.726562 201.402344 201.273438 201.402344 201.746094 C 201.402344 202.320312 201.476562 202.765625 201.621094 203.074219 C 201.769531 203.390625 201.90625 203.640625 202.035156 203.828125 L 200.449219 204.464844 C 200.273438 204.261719 200.128906 204.015625 200.015625 203.722656 C 199.90625 203.425781 199.851562 203.09375 199.851562 202.714844 C 199.851562 202.5625 199.863281 202.363281 199.886719 202.121094 C 199.910156 201.882812 199.9375 201.609375 199.972656 201.304688 L 199.671875 202.007812 C 199.472656 202.46875 199.257812 202.851562 199.023438 203.164062 C 198.785156 203.476562 198.539062 203.726562 198.273438 203.914062 C 198.007812 204.105469 197.734375 204.238281 197.445312 204.316406 C 197.15625 204.390625 196.859375 204.425781 196.554688 204.425781 Z M 203.691406 197.066406 L 203.691406 195.636719 L 205.453125 195.636719 L 206.230469 193.433594 L 207.902344 193.0625 L 207.394531 195.636719 L 209.367188 195.636719 L 209.121094 197.066406 L 207.109375 197.066406 L 206.125 202.273438 C 206.113281 202.332031 206.101562 202.382812 206.09375 202.421875 C 206.089844 202.464844 206.089844 202.503906 206.089844 202.539062 C 206.089844 202.703125 206.136719 202.816406 206.230469 202.882812 C 206.324219 202.949219 206.5 202.980469 206.757812 202.980469 C 206.921875 202.980469 207.089844 202.964844 207.257812 202.933594 C 207.429688 202.90625 207.59375 202.875 207.746094 202.839844 C 207.921875 202.792969 208.09375 202.738281 208.257812 202.679688 L 208.257812 204.003906 C 208.054688 204.085938 207.839844 204.15625 207.605469 204.214844 C 207.40625 204.273438 207.167969 204.324219 206.890625 204.367188 C 206.613281 204.40625 206.324219 204.425781 206.019531 204.425781 C 205.3125 204.425781 204.808594 204.300781 204.507812 204.046875 C 204.210938 203.792969 204.0625 203.425781 204.0625 202.945312 C 204.0625 202.792969 204.078125 202.628906 204.113281 202.449219 L 205.191406 197.066406 Z M 209.207031 201.53125 C 209.207031 200.699219 209.316406 199.910156 209.53125 199.167969 C 209.75 198.425781 210.066406 197.78125 210.484375 197.226562 C 210.902344 196.671875 211.417969 196.234375 212.027344 195.910156 C 212.640625 195.585938 213.335938 195.425781 214.125 195.425781 C 215.042969 195.425781 215.695312 195.597656 216.082031 195.9375 C 216.46875 196.28125 216.664062 196.746094 216.664062 197.332031 C 216.664062 197.851562 216.53125 198.320312 216.265625 198.746094 C 216 199.167969 215.632812 199.539062 215.152344 199.855469 C 214.679688 200.175781 214.113281 200.429688 213.457031 200.621094 C 212.796875 200.816406 212.074219 200.933594 211.289062 200.96875 C 211.277344 201.074219 211.269531 201.179688 211.269531 201.285156 C 211.269531 201.390625 211.269531 201.492188 211.269531 201.585938 C 211.269531 202.140625 211.386719 202.523438 211.621094 202.734375 C 211.859375 202.945312 212.167969 203.050781 212.554688 203.050781 C 212.792969 203.050781 213.058594 203.015625 213.355469 202.945312 C 213.65625 202.875 213.949219 202.792969 214.230469 202.699219 C 214.546875 202.59375 214.882812 202.46875 215.234375 202.328125 L 215.640625 203.597656 C 215.289062 203.761719 214.917969 203.910156 214.53125 204.039062 C 214.203125 204.15625 213.828125 204.261719 213.410156 204.351562 C 212.992188 204.4375 212.574219 204.480469 212.152344 204.480469 C 211.597656 204.480469 211.136719 204.398438 210.757812 204.234375 C 210.382812 204.070312 210.078125 203.847656 209.847656 203.574219 C 209.621094 203.296875 209.457031 202.980469 209.355469 202.628906 C 209.257812 202.273438 209.207031 201.910156 209.207031 201.53125 Z M 213.71875 196.785156 C 213.449219 196.785156 213.195312 196.863281 212.960938 197.023438 C 212.726562 197.183594 212.519531 197.398438 212.335938 197.667969 C 212.152344 197.9375 211.992188 198.25 211.851562 198.601562 C 211.710938 198.957031 211.59375 199.320312 211.5 199.699219 C 212.027344 199.664062 212.488281 199.578125 212.878906 199.441406 C 213.277344 199.304688 213.605469 199.136719 213.867188 198.9375 C 214.132812 198.738281 214.332031 198.527344 214.46875 198.304688 C 214.601562 198.078125 214.671875 197.863281 214.671875 197.648438 C 214.671875 197.378906 214.597656 197.167969 214.449219 197.015625 C 214.304688 196.863281 214.058594 196.785156 213.71875 196.785156 Z M 229.628906 195.636719 C 229.628906 195.613281 229.605469 195.71875 229.550781 195.957031 C 229.5 196.191406 229.429688 196.503906 229.339844 196.890625 C 229.253906 197.28125 229.15625 197.710938 229.058594 198.179688 C 228.957031 198.648438 228.867188 199.113281 228.785156 199.574219 C 228.703125 200.03125 228.632812 200.453125 228.574219 200.835938 C 228.515625 201.21875 228.484375 201.507812 228.484375 201.710938 C 228.484375 202.003906 228.5 202.277344 228.53125 202.527344 C 228.558594 202.78125 228.589844 203.03125 228.625 203.269531 C 228.660156 203.511719 228.695312 203.753906 228.722656 203.992188 C 228.753906 204.234375 228.765625 204.492188 228.765625 204.761719 C 228.765625 205.410156 228.679688 205.953125 228.503906 206.398438 C 228.324219 206.835938 228.078125 207.1875 227.753906 207.453125 C 227.429688 207.71875 227.039062 207.910156 226.574219 208.027344 C 226.109375 208.144531 225.59375 208.203125 225.03125 208.203125 C 224.691406 208.203125 224.347656 208.167969 224.007812 208.089844 C 223.667969 208.015625 223.339844 207.921875 223.019531 207.816406 C 222.703125 207.710938 222.40625 207.597656 222.132812 207.472656 C 221.855469 207.347656 221.617188 207.238281 221.417969 207.144531 L 222.105469 205.664062 C 222.328125 205.757812 222.570312 205.859375 222.828125 205.972656 C 223.085938 206.085938 223.351562 206.1875 223.621094 206.28125 C 223.890625 206.375 224.167969 206.453125 224.449219 206.519531 C 224.730469 206.585938 225.007812 206.617188 225.277344 206.617188 C 225.828125 206.617188 226.257812 206.441406 226.5625 206.085938 C 226.871094 205.734375 227.023438 205.304688 227.023438 204.796875 C 227.023438 204.691406 227.019531 204.578125 227.015625 204.457031 C 227.007812 204.332031 227 204.1875 226.988281 204.027344 C 226.976562 203.871094 226.964844 203.6875 226.960938 203.472656 C 226.953125 203.261719 226.953125 203.003906 226.953125 202.699219 C 226.953125 202.484375 226.96875 202.246094 227.003906 201.972656 C 227.039062 201.703125 227.070312 201.46875 227.09375 201.269531 L 226.757812 202.007812 C 226.417969 202.820312 225.960938 203.425781 225.394531 203.828125 C 224.824219 204.226562 224.183594 204.425781 223.480469 204.425781 C 222.703125 204.425781 222.136719 204.234375 221.78125 203.84375 C 221.421875 203.457031 221.242188 202.933594 221.242188 202.273438 C 221.242188 201.816406 221.300781 201.367188 221.417969 200.933594 C 221.535156 200.496094 221.667969 200.070312 221.816406 199.652344 C 221.960938 199.234375 222.09375 198.820312 222.210938 198.410156 C 222.328125 197.996094 222.386719 197.585938 222.386719 197.171875 C 222.386719 196.9375 222.378906 196.707031 222.363281 196.476562 C 222.34375 196.246094 222.324219 196.066406 222.300781 195.9375 L 223.972656 195.515625 C 224.101562 195.773438 224.191406 196.0625 224.238281 196.386719 C 224.285156 196.710938 224.308594 197.015625 224.308594 197.296875 C 224.308594 197.710938 224.253906 198.101562 224.140625 198.480469 C 224.03125 198.855469 223.910156 199.230469 223.777344 199.597656 C 223.648438 199.96875 223.53125 200.339844 223.417969 200.703125 C 223.308594 201.066406 223.25 201.445312 223.25 201.832031 C 223.25 202.117188 223.320312 202.351562 223.453125 202.546875 C 223.589844 202.742188 223.839844 202.839844 224.203125 202.839844 C 224.519531 202.839844 224.832031 202.699219 225.136719 202.421875 C 225.441406 202.148438 225.726562 201.792969 225.992188 201.363281 C 226.257812 200.933594 226.484375 200.460938 226.679688 199.945312 C 226.871094 199.425781 227.015625 198.925781 227.109375 198.445312 L 227.65625 195.636719 Z M 235.429688 195.425781 C 235.992188 195.425781 236.460938 195.507812 236.839844 195.671875 C 237.214844 195.839844 237.515625 196.058594 237.746094 196.332031 C 237.972656 196.609375 238.136719 196.925781 238.230469 197.28125 C 238.324219 197.632812 238.371094 197.996094 238.371094 198.375 C 238.371094 199.222656 238.261719 200.015625 238.042969 200.757812 C 237.828125 201.496094 237.515625 202.144531 237.101562 202.699219 C 236.691406 203.25 236.175781 203.6875 235.558594 204.003906 C 234.941406 204.320312 234.242188 204.480469 233.453125 204.480469 C 232.902344 204.480469 232.4375 204.398438 232.0625 204.234375 C 231.6875 204.070312 231.382812 203.847656 231.152344 203.574219 C 230.925781 203.296875 230.761719 202.980469 230.660156 202.628906 C 230.5625 202.273438 230.511719 201.910156 230.511719 201.53125 C 230.511719 200.699219 230.621094 199.910156 230.835938 199.167969 C 231.054688 198.425781 231.371094 197.78125 231.789062 197.226562 C 232.207031 196.671875 232.71875 196.234375 233.332031 195.910156 C 233.941406 195.585938 234.640625 195.425781 235.429688 195.425781 Z M 235.023438 196.785156 C 234.636719 196.785156 234.292969 196.945312 233.992188 197.269531 C 233.691406 197.59375 233.4375 198 233.234375 198.488281 C 233.027344 198.976562 232.871094 199.503906 232.765625 200.066406 C 232.660156 200.632812 232.609375 201.164062 232.609375 201.65625 C 232.609375 202.210938 232.71875 202.59375 232.945312 202.804688 C 233.167969 203.015625 233.472656 203.121094 233.859375 203.121094 C 234.246094 203.121094 234.589844 202.960938 234.890625 202.636719 C 235.191406 202.3125 235.441406 201.90625 235.648438 201.417969 C 235.855469 200.929688 236.011719 200.398438 236.117188 199.828125 C 236.222656 199.257812 236.273438 198.734375 236.273438 198.25 C 236.273438 197.695312 236.164062 197.316406 235.941406 197.101562 C 235.714844 196.890625 235.410156 196.785156 235.023438 196.785156 Z M 240.679688 197.171875 C 240.679688 196.9375 240.671875 196.707031 240.652344 196.476562 C 240.636719 196.246094 240.609375 196.066406 240.574219 195.9375 L 242.25 195.515625 C 242.378906 195.773438 242.464844 196.0625 242.511719 196.386719 C 242.558594 196.710938 242.582031 197.015625 242.582031 197.296875 C 242.582031 197.710938 242.527344 198.101562 242.414062 198.480469 C 242.304688 198.855469 242.183594 199.230469 242.054688 199.597656 C 241.925781 199.96875 241.804688 200.339844 241.691406 200.703125 C 241.582031 201.066406 241.527344 201.445312 241.527344 201.832031 C 241.527344 202.117188 241.59375 202.351562 241.726562 202.546875 C 241.863281 202.742188 242.113281 202.839844 242.476562 202.839844 C 242.796875 202.839844 243.105469 202.699219 243.410156 202.421875 C 243.71875 202.148438 244 201.792969 244.265625 201.363281 C 244.53125 200.933594 244.757812 200.460938 244.953125 199.945312 C 245.148438 199.425781 245.292969 198.925781 245.386719 198.445312 L 245.933594 195.636719 L 247.90625 195.636719 L 246.972656 200.085938 C 246.902344 200.425781 246.851562 200.726562 246.820312 200.984375 C 246.792969 201.246094 246.777344 201.492188 246.777344 201.726562 C 246.777344 202.304688 246.855469 202.75 247.007812 203.070312 C 247.160156 203.386719 247.300781 203.640625 247.429688 203.828125 L 245.828125 204.464844 C 245.648438 204.261719 245.503906 204.015625 245.394531 203.722656 C 245.28125 203.425781 245.226562 203.09375 245.226562 202.714844 C 245.226562 202.550781 245.238281 202.351562 245.261719 202.117188 C 245.285156 201.878906 245.316406 201.609375 245.351562 201.304688 L 245.050781 202.007812 C 244.699219 202.820312 244.238281 203.425781 243.664062 203.828125 C 243.097656 204.226562 242.460938 204.425781 241.753906 204.425781 C 240.980469 204.425781 240.414062 204.234375 240.054688 203.84375 C 239.695312 203.457031 239.515625 202.933594 239.515625 202.273438 C 239.515625 201.816406 239.578125 201.367188 239.699219 200.933594 C 239.824219 200.496094 239.957031 200.070312 240.097656 199.652344 C 240.238281 199.234375 240.371094 198.820312 240.492188 198.410156 C 240.617188 197.996094 240.679688 197.585938 240.679688 197.171875 Z M 255.796875 196.203125 L 254.777344 197.84375 C 254.621094 197.679688 254.464844 197.542969 254.300781 197.4375 C 254.136719 197.332031 253.917969 197.28125 253.648438 197.28125 C 253.484375 197.28125 253.324219 197.355469 253.164062 197.507812 C 253.003906 197.660156 252.851562 197.863281 252.707031 198.117188 C 252.558594 198.371094 252.421875 198.660156 252.289062 198.980469 C 252.160156 199.304688 252.050781 199.632812 251.957031 199.960938 L 251.109375 204.285156 L 249.136719 204.285156 L 250.035156 199.839844 C 250.105469 199.496094 250.15625 199.179688 250.1875 198.886719 C 250.214844 198.589844 250.230469 198.328125 250.230469 198.089844 C 250.230469 197.445312 250.171875 196.972656 250.050781 196.679688 C 249.933594 196.386719 249.847656 196.191406 249.789062 196.097656 L 251.390625 195.460938 C 251.519531 195.625 251.628906 195.828125 251.71875 196.0625 C 251.808594 196.296875 251.851562 196.597656 251.851562 196.960938 C 251.851562 197.207031 251.832031 197.480469 251.789062 197.78125 C 251.746094 198.082031 251.714844 198.367188 251.691406 198.636719 C 251.9375 197.566406 252.261719 196.773438 252.660156 196.253906 C 253.058594 195.738281 253.589844 195.480469 254.246094 195.480469 C 254.644531 195.480469 254.96875 195.546875 255.214844 195.679688 C 255.464844 195.816406 255.65625 195.992188 255.796875 196.203125 Z M 264.46875 192.25 C 264.996094 192.25 265.433594 192.3125 265.773438 192.445312 C 266.113281 192.574219 266.390625 192.738281 266.601562 192.945312 C 266.8125 193.152344 266.972656 193.378906 267.085938 193.625 C 267.195312 193.875 267.28125 194.113281 267.339844 194.351562 L 265.859375 195.039062 C 265.8125 194.933594 265.761719 194.808594 265.703125 194.667969 C 265.644531 194.527344 265.566406 194.386719 265.472656 194.25 C 265.378906 194.117188 265.253906 194.003906 265.09375 193.914062 C 264.933594 193.828125 264.726562 193.785156 264.46875 193.785156 C 264.234375 193.785156 264.011719 193.824219 263.804688 193.898438 C 263.601562 193.976562 263.421875 194.078125 263.269531 194.207031 C 263.117188 194.339844 262.996094 194.492188 262.90625 194.667969 C 262.820312 194.84375 262.777344 195.039062 262.777344 195.25 C 262.777344 195.460938 262.800781 195.648438 262.855469 195.816406 C 262.910156 195.980469 262.984375 196.125 263.082031 196.253906 C 263.183594 196.386719 263.300781 196.503906 263.429688 196.609375 C 263.558594 196.714844 263.703125 196.828125 263.871094 196.945312 L 265.28125 197.984375 C 265.703125 198.304688 266.066406 198.691406 266.371094 199.152344 C 266.675781 199.609375 266.832031 200.1875 266.832031 200.878906 C 266.832031 201.480469 266.703125 202.007812 266.449219 202.457031 C 266.199219 202.914062 265.867188 203.292969 265.457031 203.605469 C 265.042969 203.917969 264.578125 204.152344 264.054688 204.304688 C 263.53125 204.457031 262.996094 204.535156 262.441406 204.535156 C 262.007812 204.535156 261.609375 204.5 261.242188 204.425781 C 260.878906 204.355469 260.546875 204.269531 260.246094 204.171875 C 259.949219 204.070312 259.675781 203.964844 259.433594 203.84375 C 259.195312 203.726562 258.980469 203.617188 258.792969 203.511719 L 259.675781 201.957031 C 260.074219 202.191406 260.5 202.421875 260.949219 202.644531 C 261.40625 202.867188 261.878906 202.980469 262.371094 202.980469 C 263.03125 202.980469 263.558594 202.828125 263.964844 202.527344 C 264.371094 202.230469 264.574219 201.761719 264.574219 201.128906 C 264.574219 200.714844 264.480469 200.378906 264.292969 200.121094 C 264.105469 199.863281 263.828125 199.597656 263.464844 199.328125 L 262.140625 198.339844 C 261.625 197.960938 261.222656 197.566406 260.933594 197.15625 C 260.648438 196.746094 260.503906 196.191406 260.503906 195.496094 C 260.503906 194.980469 260.601562 194.519531 260.804688 194.121094 C 261.003906 193.71875 261.28125 193.382812 261.636719 193.105469 C 261.996094 192.828125 262.417969 192.617188 262.898438 192.46875 C 263.382812 192.324219 263.90625 192.25 264.46875 192.25 Z M 270.285156 201.53125 L 269.753906 204.285156 L 267.78125 204.285156 L 270.214844 191.84375 L 272.207031 191.492188 L 271.660156 194.457031 C 271.589844 194.832031 271.46875 195.289062 271.296875 195.832031 C 271.125 196.375 270.976562 196.886719 270.847656 197.367188 C 271.304688 196.625 271.789062 196.128906 272.292969 195.875 C 272.796875 195.621094 273.296875 195.496094 273.792969 195.496094 C 274.472656 195.496094 275.035156 195.660156 275.484375 195.992188 C 275.929688 196.320312 276.152344 196.832031 276.152344 197.527344 C 276.152344 198.054688 276.019531 198.511719 275.753906 198.894531 C 275.492188 199.277344 275.203125 199.585938 274.882812 199.820312 C 274.507812 200.101562 274.089844 200.332031 273.632812 200.507812 C 273.785156 200.992188 273.953125 201.433594 274.132812 201.839844 C 274.316406 202.246094 274.523438 202.640625 274.75 203.015625 C 274.980469 203.390625 275.230469 203.757812 275.5 204.117188 C 275.769531 204.476562 276.070312 204.84375 276.398438 205.222656 L 274.832031 206.105469 C 273.914062 205.257812 273.1875 204.3125 272.652344 203.269531 C 272.121094 202.230469 271.710938 201.15625 271.429688 200.050781 L 271.449219 199.875 C 271.542969 199.851562 271.730469 199.792969 272.019531 199.699219 C 272.308594 199.601562 272.605469 199.472656 272.910156 199.308594 C 273.214844 199.144531 273.488281 198.941406 273.726562 198.699219 C 273.96875 198.457031 274.089844 198.179688 274.089844 197.863281 C 274.089844 197.554688 274.027344 197.324219 273.898438 197.164062 C 273.769531 197.003906 273.539062 196.925781 273.210938 196.925781 C 272.796875 196.925781 272.429688 197.085938 272.105469 197.410156 C 271.785156 197.734375 271.5 198.136719 271.253906 198.613281 C 271.007812 199.089844 270.804688 199.589844 270.644531 200.121094 C 270.488281 200.652344 270.367188 201.121094 270.285156 201.53125 Z M 280.21875 191.5625 C 280.597656 191.5625 280.871094 191.664062 281.050781 191.867188 C 281.226562 192.074219 281.3125 192.355469 281.3125 192.707031 C 281.3125 193.050781 281.195312 193.351562 280.960938 193.617188 C 280.726562 193.882812 280.410156 194.015625 280.007812 194.015625 C 279.632812 194.015625 279.355469 193.910156 279.179688 193.695312 C 279.003906 193.484375 278.917969 193.21875 278.917969 192.902344 C 278.917969 192.539062 279.03125 192.222656 279.261719 191.957031 C 279.488281 191.691406 279.808594 191.5625 280.21875 191.5625 Z M 278.933594 204.375 C 278.40625 204.375 278 204.238281 277.71875 203.96875 C 277.4375 203.699219 277.296875 203.339844 277.296875 202.890625 C 277.296875 202.726562 277.3125 202.558594 277.347656 202.378906 L 278.6875 195.636719 L 280.625 195.636719 L 279.355469 202.203125 C 279.34375 202.261719 279.335938 202.3125 279.332031 202.351562 C 279.324219 202.394531 279.320312 202.4375 279.320312 202.484375 C 279.320312 202.78125 279.421875 202.925781 279.621094 202.925781 C 279.820312 202.925781 280.015625 202.90625 280.203125 202.863281 C 280.390625 202.824219 280.496094 202.796875 280.519531 202.785156 L 280.519531 204.058594 C 280.390625 204.117188 280.246094 204.167969 280.078125 204.214844 C 279.9375 204.261719 279.773438 204.300781 279.578125 204.332031 C 279.382812 204.359375 279.167969 204.375 278.933594 204.375 Z M 285.507812 202.785156 L 285.507812 204.058594 C 285.355469 204.117188 285.183594 204.167969 284.996094 204.214844 C 284.832031 204.261719 284.636719 204.300781 284.40625 204.332031 C 284.179688 204.359375 283.925781 204.375 283.65625 204.375 C 283.105469 204.375 282.695312 204.238281 282.421875 203.96875 C 282.152344 203.699219 282.019531 203.339844 282.019531 202.890625 C 282.019531 202.726562 282.035156 202.5625 282.070312 202.398438 L 284.132812 191.84375 L 286.125 191.492188 L 284.082031 202.203125 C 284.070312 202.261719 284.058594 202.3125 284.054688 202.351562 C 284.046875 202.394531 284.046875 202.4375 284.046875 202.484375 C 284.046875 202.78125 284.203125 202.925781 284.519531 202.925781 C 284.765625 202.925781 284.988281 202.90625 285.183594 202.863281 C 285.375 202.824219 285.484375 202.796875 285.507812 202.785156 Z M 290.40625 202.785156 L 290.40625 204.058594 C 290.253906 204.117188 290.085938 204.167969 289.894531 204.214844 C 289.730469 204.261719 289.535156 204.300781 289.304688 204.332031 C 289.074219 204.359375 288.828125 204.375 288.554688 204.375 C 288.003906 204.375 287.59375 204.238281 287.324219 203.96875 C 287.054688 203.699219 286.917969 203.339844 286.917969 202.890625 C 286.917969 202.726562 286.933594 202.5625 286.96875 202.398438 L 289.03125 191.84375 L 291.023438 191.492188 L 288.980469 202.203125 C 288.96875 202.261719 288.957031 202.3125 288.953125 202.351562 C 288.945312 202.394531 288.945312 202.4375 288.945312 202.484375 C 288.945312 202.78125 289.101562 202.925781 289.421875 202.925781 C 289.667969 202.925781 289.886719 202.90625 290.078125 202.863281 C 290.273438 202.824219 290.382812 202.796875 290.40625 202.785156 Z M 295.816406 195.425781 C 296.179688 195.425781 296.496094 195.46875 296.769531 195.558594 C 297.035156 195.644531 297.265625 195.765625 297.453125 195.921875 C 297.644531 196.074219 297.792969 196.253906 297.902344 196.457031 C 298.015625 196.664062 298.09375 196.878906 298.140625 197.101562 L 296.679688 197.683594 C 296.632812 197.578125 296.59375 197.46875 296.554688 197.355469 C 296.519531 197.246094 296.46875 197.148438 296.394531 197.058594 C 296.324219 196.96875 296.234375 196.898438 296.125 196.84375 C 296.011719 196.792969 295.859375 196.769531 295.671875 196.769531 C 295.273438 196.769531 294.988281 196.878906 294.820312 197.101562 C 294.652344 197.328125 294.566406 197.554688 294.566406 197.792969 C 294.566406 197.957031 294.597656 198.101562 294.660156 198.234375 C 294.726562 198.363281 294.804688 198.480469 294.898438 198.585938 C 294.992188 198.691406 295.09375 198.785156 295.207031 198.867188 C 295.320312 198.949219 295.421875 199.015625 295.515625 199.0625 L 296.027344 199.34375 C 296.214844 199.449219 296.398438 199.566406 296.582031 199.6875 C 296.765625 199.8125 296.921875 199.960938 297.050781 200.140625 C 297.179688 200.316406 297.28125 200.53125 297.363281 200.78125 C 297.449219 201.035156 297.492188 201.34375 297.492188 201.710938 C 297.492188 202.085938 297.417969 202.441406 297.269531 202.777344 C 297.125 203.113281 296.910156 203.40625 296.625 203.65625 C 296.34375 203.914062 295.992188 204.113281 295.566406 204.257812 C 295.148438 204.40625 294.652344 204.480469 294.085938 204.480469 C 293.714844 204.480469 293.351562 204.4375 293.003906 204.351562 C 292.65625 204.261719 292.347656 204.164062 292.078125 204.058594 C 291.773438 203.925781 291.480469 203.785156 291.195312 203.632812 L 291.972656 202.238281 C 292.21875 202.390625 292.472656 202.527344 292.734375 202.644531 C 292.941406 202.75 293.175781 202.84375 293.429688 202.925781 C 293.679688 203.011719 293.917969 203.050781 294.144531 203.050781 C 294.585938 203.050781 294.917969 202.949219 295.136719 202.75 C 295.355469 202.550781 295.464844 202.316406 295.464844 202.046875 C 295.464844 201.644531 295.355469 201.339844 295.136719 201.132812 C 294.917969 200.929688 294.667969 200.75 294.390625 200.597656 L 293.949219 200.367188 C 293.804688 200.296875 293.652344 200.210938 293.488281 200.101562 C 293.324219 199.996094 293.171875 199.859375 293.023438 199.6875 C 292.875 199.515625 292.753906 199.304688 292.660156 199.042969 C 292.566406 198.785156 292.519531 198.46875 292.519531 198.089844 C 292.519531 197.714844 292.589844 197.363281 292.734375 197.039062 C 292.871094 196.71875 293.078125 196.433594 293.355469 196.191406 C 293.632812 195.953125 293.980469 195.765625 294.390625 195.628906 C 294.800781 195.492188 295.277344 195.425781 295.816406 195.425781 Z M 295.816406 195.425781 "/>
</g>
<g clip-path="url(#clip4)" clip-rule="nonzero">
<path style=" stroke:none;fill-rule:nonzero;fill:rgb(77.254902%,43.137255%,20%);fill-opacity:1;" d="M 112.121094 129.566406 L 69.585938 129.566406 C 62.371094 129.566406 56.5 135.445312 56.5 142.671875 L 56.5 195.097656 C 56.5 202.324219 62.371094 208.203125 69.585938 208.203125 L 112.121094 208.203125 C 113.925781 208.203125 115.390625 206.738281 115.390625 204.929688 L 115.390625 152.503906 C 115.390625 150.691406 113.925781 149.226562 112.121094 149.226562 L 69.585938 149.226562 C 65.980469 149.226562 63.042969 146.285156 63.042969 142.671875 C 63.042969 139.058594 65.980469 136.121094 69.585938 136.121094 L 112.121094 136.121094 C 113.925781 136.121094 115.390625 134.652344 115.390625 132.84375 C 115.390625 131.03125 113.925781 129.566406 112.121094 129.566406 M 69.585938 155.777344 L 108.847656 155.777344 L 108.847656 201.652344 L 69.585938 201.652344 C 65.980469 201.652344 63.042969 198.710938 63.042969 195.097656 L 63.042969 154.003906 C 65.03125 155.164062 67.289062 155.777344 69.585938 155.777344 "/>
</g>
<path style=" stroke:none;fill-rule:nonzero;fill:rgb(77.254902%,43.137255%,20%);fill-opacity:1;" d="M 112.121094 139.394531 L 69.585938 139.394531 C 67.78125 139.394531 66.316406 140.863281 66.316406 142.671875 C 66.316406 144.480469 67.78125 145.949219 69.585938 145.949219 L 112.121094 145.949219 C 113.925781 145.949219 115.390625 144.480469 115.390625 142.671875 C 115.390625 140.863281 113.925781 139.394531 112.121094 139.394531 "/>
<g clip-path="url(#clip5)" clip-rule="nonzero">
<path style=" stroke:none;fill-rule:nonzero;fill:rgb(77.254902%,43.137255%,20%);fill-opacity:1;" d="M 126.84375 129.566406 C 122.332031 129.566406 118.664062 133.242188 118.664062 137.757812 L 118.664062 195.097656 C 118.664062 195.605469 118.78125 196.109375 119.007812 196.5625 L 123.917969 206.394531 C 124.472656 207.503906 125.605469 208.203125 126.84375 208.203125 C 128.082031 208.203125 129.214844 207.503906 129.769531 206.394531 L 134.675781 196.5625 C 134.90625 196.109375 135.023438 195.605469 135.023438 195.097656 L 135.023438 137.757812 C 135.023438 133.242188 131.351562 129.566406 126.84375 129.566406 M 126.84375 136.121094 C 127.746094 136.121094 128.480469 136.855469 128.480469 137.757812 L 128.480469 142.671875 L 125.207031 142.671875 L 125.207031 137.757812 C 125.207031 136.855469 125.941406 136.121094 126.84375 136.121094 M 126.84375 197.601562 L 125.207031 194.324219 L 125.207031 149.226562 L 128.480469 149.226562 L 128.480469 194.324219 Z M 126.84375 197.601562 "/>
</g>
<path style=" stroke:none;fill-rule:nonzero;fill:rgb(77.254902%,43.137255%,20%);fill-opacity:1;" d="M 72.859375 181.992188 L 99.03125 181.992188 C 100.839844 181.992188 102.304688 180.523438 102.304688 178.714844 L 102.304688 165.609375 C 102.304688 163.800781 100.839844 162.332031 99.03125 162.332031 L 72.859375 162.332031 C 71.050781 162.332031 69.585938 163.800781 69.585938 165.609375 L 69.585938 178.714844 C 69.585938 180.523438 71.050781 181.992188 72.859375 181.992188 M 76.128906 168.886719 L 95.761719 168.886719 L 95.761719 175.4375 L 76.128906 175.4375 Z M 76.128906 168.886719 "/>
<path style=" stroke:none;fill-rule:nonzero;fill:rgb(77.254902%,43.137255%,20%);fill-opacity:1;" d="M 72.859375 191.820312 L 99.03125 191.820312 C 100.839844 191.820312 102.304688 190.355469 102.304688 188.546875 C 102.304688 186.734375 100.839844 185.269531 99.03125 185.269531 L 72.859375 185.269531 C 71.050781 185.269531 69.585938 186.734375 69.585938 188.546875 C 69.585938 190.355469 71.050781 191.820312 72.859375 191.820312 "/>
</g>
</svg>
