<?xml version="1.0" standalone="no"?>
<!DOCTYPE svg PUBLIC "-//W3C//DTD SVG 20010904//EN"
 "http://www.w3.org/TR/2001/REC-SVG-20010904/DTD/svg10.dtd">
<svg version="1.0" xmlns="http://www.w3.org/2000/svg"
 width="auto" height="auto" viewBox="0 0 640.000000 165.000000"
 preserveAspectRatio="xMidYMid meet">

<g transform="translate(0.000000,165.000000) scale(0.100000,-0.100000)"
fill="#770b3d" stroke="none">
<path d="M104 1631 c-39 -18 -73 -54 -87 -94 -4 -10 -7 -292 -7 -628 -1 -674
-2 -655 63 -701 41 -29 157 -40 157 -14 0 12 -10 16 -41 16 -133 0 -199 141
-105 227 l36 33 430 0 c236 0 433 0 437 1 4 0 21 -41 38 -92 17 -51 36 -94 43
-97 9 -3 81 86 112 138 7 12 25 -1 89 -64 l80 -80 52 53 53 52 -80 80 c-63 64
-76 82 -64 89 41 24 140 101 140 109 0 5 -49 26 -110 46 l-109 36 -3 436 -3
435 -24 19 c-22 18 -46 19 -540 19 -482 0 -519 -2 -557 -19z m54 -574 l2 -545
-34 -12 c-19 -6 -46 -20 -60 -31 l-26 -20 0 531 c0 586 -2 571 63 610 18 11
37 18 42 17 6 -2 11 -197 13 -550z m1030 126 c1 -233 -1 -423 -5 -423 -4 0
-71 21 -150 47 -78 26 -146 44 -150 40 -4 -5 16 -79 45 -165 29 -87 52 -161
52 -165 0 -4 -178 -7 -395 -7 l-395 0 0 550 0 550 498 -2 497 -3 3 -422z m-23
-453 c118 -39 215 -74 215 -78 0 -4 -29 -27 -65 -51 -36 -24 -65 -47 -65 -50
0 -3 35 -40 77 -83 l77 -78 -29 -30 -29 -30 -76 75 c-41 41 -80 75 -85 75 -6
0 -30 -29 -55 -65 -25 -36 -48 -65 -52 -65 -5 0 -148 427 -148 444 0 11 22 5
235 -64z"/>
<path d="M902 1038 c2 -54 7 -93 13 -93 6 0 11 39 13 93 2 78 0 92 -13 92 -13
0 -15 -14 -13 -92z"/>
<path d="M694 1036 c-5 -13 9 -33 52 -77 57 -57 84 -72 84 -46 0 7 -29 41 -65
77 -54 53 -65 61 -71 46z"/>
<path d="M600 815 c0 -12 17 -15 95 -15 78 0 95 3 95 15 0 12 -17 15 -95 15
-78 0 -95 -3 -95 -15z"/>
<path d="M4830 839 l0 -151 -41 36 c-119 101 -312 19 -350 -149 -29 -129 53
-256 184 -285 69 -16 129 0 174 45 l33 33 0 -34 c0 -33 1 -34 40 -34 l40 0 0
345 0 345 -40 0 -40 0 0 -151z m-71 -168 c46 -33 65 -76 66 -147 0 -80 -33
-134 -100 -159 -39 -15 -52 -16 -88 -6 -78 23 -127 88 -127 167 0 133 146 218
249 145z"/>
<path d="M2925 900 c-4 -6 -4 -22 -1 -36 6 -21 12 -25 39 -22 28 3 32 7 32 33
0 26 -4 30 -32 33 -17 2 -34 -2 -38 -8z"/>
<path d="M2204 764 c-12 -3 -40 -21 -63 -40 l-41 -36 0 36 c0 35 -1 36 -40 36
l-40 0 2 -347 3 -348 35 0 35 0 5 155 c3 85 7 149 8 143 1 -7 21 -26 44 -43
85 -62 233 -30 298 65 86 125 48 290 -83 356 -39 20 -122 32 -163 23z m145
-97 c47 -31 71 -80 71 -145 0 -92 -72 -162 -168 -162 -50 0 -58 3 -92 38 -148
148 17 383 189 269z"/>
<path d="M2740 754 c-19 -8 -45 -25 -57 -36 l-23 -21 0 31 c0 30 -2 32 -35 32
l-35 0 0 -230 0 -230 35 0 35 0 0 156 0 156 39 39 c33 34 45 39 83 39 40 0 45
3 55 31 7 18 10 36 7 40 -8 14 -65 10 -104 -7z"/>
<path d="M3276 760 c-16 -5 -41 -21 -57 -36 l-27 -26 -4 28 c-3 26 -7 29 -38
29 l-35 0 -3 -227 -2 -228 40 0 40 0 0 153 c0 133 2 156 19 181 26 39 57 55
106 55 49 0 80 -16 106 -55 17 -25 19 -48 19 -181 l0 -153 35 0 35 0 0 133 c0
72 5 149 10 169 32 113 191 121 236 12 10 -23 14 -77 14 -176 l0 -143 35 0 35
0 0 164 c0 147 -2 169 -21 209 -53 109 -205 134 -290 47 l-34 -34 -30 29 c-54
52 -121 70 -189 50z"/>
<path d="M4071 757 c-48 -19 -108 -72 -133 -120 -29 -54 -31 -165 -4 -217 56
-108 161 -157 269 -126 42 12 65 27 103 68 l49 52 -40 12 c-37 10 -41 9 -58
-13 -58 -73 -182 -71 -236 5 -11 16 -23 40 -26 55 l-7 27 192 0 193 0 -6 51
c-9 72 -54 148 -109 182 -53 33 -135 43 -187 24z m147 -77 c37 -23 72 -75 72
-107 0 -23 -1 -23 -150 -23 -168 0 -166 -1 -130 69 38 76 136 105 208 61z"/>
<path d="M5158 756 c-79 -28 -129 -81 -154 -163 -65 -210 204 -407 353 -258
l33 33 0 -34 c0 -33 1 -34 40 -34 l40 0 0 230 0 230 -35 0 c-34 0 -35 -1 -35
-42 l0 -42 -32 32 c-61 58 -134 75 -210 48z m161 -83 c14 -11 36 -39 49 -63
67 -133 -35 -286 -168 -250 -103 28 -162 149 -116 238 20 38 68 81 102 92 41
13 103 5 133 -17z"/>
<path d="M5622 749 c-49 -25 -72 -61 -72 -116 0 -68 41 -102 165 -138 72 -20
95 -39 95 -77 0 -21 -8 -33 -32 -48 -52 -31 -117 -23 -164 21 -18 17 -25 18
-48 8 -32 -15 -33 -29 -3 -57 104 -98 317 -46 317 78 0 67 -45 104 -183 150
-83 27 -103 54 -70 98 38 50 126 54 176 8 26 -24 34 -23 76 11 9 7 -37 47 -74
64 -54 25 -129 24 -183 -2z"/>
<path d="M6108 760 c-126 -38 -196 -178 -156 -312 6 -22 32 -62 56 -89 88 -98
217 -103 313 -10 27 26 49 53 49 59 0 6 -15 15 -32 20 -29 8 -35 6 -52 -15
-61 -79 -192 -68 -246 19 -41 68 -42 68 170 68 l190 0 0 23 c0 58 -33 132 -79
178 -61 62 -136 82 -213 59z m143 -84 c35 -24 69 -78 69 -110 0 -14 -19 -16
-150 -16 -149 0 -150 0 -150 23 0 32 35 84 72 107 47 28 114 26 159 -4z"/>
<path d="M2927 754 c-4 -4 -7 -108 -7 -231 l0 -223 40 0 40 0 -2 228 -3 227
-30 3 c-17 2 -34 0 -38 -4z"/>
<path d="M287 354 c-12 -12 -8 -342 4 -350 6 -3 43 26 85 67 l74 73 68 -67
c37 -37 73 -67 80 -67 9 0 12 44 12 176 0 162 -1 175 -17 172 -16 -3 -18 -18
-18 -141 0 -75 -2 -137 -5 -137 -2 0 -30 26 -62 57 l-58 57 -65 -64 -64 -64
-3 144 c-3 134 -10 165 -31 144z"/>
<path d="M655 200 c-3 -6 0 -12 7 -15 26 -10 558 0 561 10 3 14 -559 19 -568
5z"/>
</g>
</svg>
