<?xml version="1.0" encoding="UTF-8" standalone="no" ?>
<!DOCTYPE svg PUBLIC "-//W3C//DTD SVG 1.1//EN" "http://www.w3.org/Graphics/SVG/1.1/DTD/svg11.dtd">
<svg xmlns="http://www.w3.org/2000/svg" xmlns:xlink="http://www.w3.org/1999/xlink" version="1.1" width="450" height="450" viewBox="0 0 1080 1080" xml:space="preserve">
<desc>Created with Fabric.js 5.2.4</desc>
<defs>
</defs>
<g transform="matrix(1 0 0 1 540 540)" id="0aaff2be-bd7f-41b1-a9cf-51d2873a699c"  >
</g>
<g transform="matrix(1 0 0 1 540 540)" id="2299c6c2-dc04-41da-8f2c-ee08cc3f417b"  >
<rect style="stroke: none; stroke-width: 1; stroke-dasharray: none; stroke-linecap: butt; stroke-dashoffset: 0; stroke-linejoin: miter; stroke-miterlimit: 4; fill: rgb(255,255,255); fill-rule: nonzero; opacity: 1; visibility: hidden;" vector-effect="non-scaling-stroke"  x="-540" y="-540" rx="0" ry="0" width="1080" height="1080" />
</g>
<g transform="matrix(0 0 0 0 0 0)"  >
<g style=""   >
</g>
</g>
<g transform="matrix(0.1 0 0 -0.1 332.27 531.22)"  >
<path style="stroke: none; stroke-width: 1; stroke-dasharray: none; stroke-linecap: butt; stroke-dashoffset: 0; stroke-linejoin: miter; stroke-miterlimit: 4; fill: rgb(107,33,168); fill-rule: nonzero; opacity: 1;" vector-effect="non-scaling-stroke"  transform=" translate(-731.88, -914.67)" d="M 104 1631 C 65 1613 31 1577 17 1537 C 13 1527 10 1245 10 909 C 9 235 8 254 73 208 C 114 179 230 168 230 194 C 230 206 220 210 189 210 C 56 210 -10 351 84 437 L 120 470 L 550 470 C 786 470 983 470 987 471 C 991 471 1008 430 1025 379 C 1042 328 1061 285 1068 282 C 1077 279 1149 368 1180 420 C 1187 432 1205 419 1269 356 L 1349 276 L 1401 329 L 1454 381 L 1374 461 C 1311 525 1298 543 1310 550 C 1351 574 1450 651 1450 659 C 1450 664 1401 685 1340 705 L 1231 741 L 1228 1177 L 1225 1612 L 1201 1631 C 1179 1649 1155 1650 661 1650 C 179 1650 142 1648 104 1631 z M 158 1057 L 160 512 L 126 500 C 107 494 80 480 66 469 L 40 449 L 40 980 C 40 1566 38 1551 103 1590 C 121 1601 140 1608 145 1607 C 151 1605 156 1410 158 1057 z M 1188 1183 C 1189 950 1187 760 1183 760 C 1179 760 1112 781 1033 807 C 955 833 887 851 883 847 C 879 842 899 768 928 682 C 957 595 980 521 980 517 C 980 513 802 510 585 510 L 190 510 L 190 1060 L 190 1610 L 688 1608 L 1185 1605 L 1188 1183 z M 1165 730 C 1283 691 1380 656 1380 652 C 1380 648 1351 625 1315 601 C 1279 577 1250 554 1250 551 C 1250 548 1285 511 1327 468 L 1404 390 L 1375 360 L 1346 330 L 1270 405 C 1229 446 1190 480 1185 480 C 1179 480 1155 451 1130 415 C 1105 379 1082 350 1078 350 C 1073 350 930 777 930 794 C 930 805 952 799 1165 730 z" stroke-linecap="round" />
</g>
<g transform="matrix(0.1 0 0 -0.1 350.59 518.94)"  >
<path style="stroke: none; stroke-width: 1; stroke-dasharray: none; stroke-linecap: butt; stroke-dashoffset: 0; stroke-linejoin: miter; stroke-miterlimit: 4; fill: rgb(107,33,168); fill-rule: nonzero; opacity: 1;" vector-effect="non-scaling-stroke"  transform=" translate(-915, -1037.5)" d="M 902 1038 C 904 984 909 945 915 945 C 921 945 926 984 928 1038 C 930 1116 928 1130 915 1130 C 902 1130 900 1116 902 1038 z" stroke-linecap="round" />
</g>
<g transform="matrix(0.1 0 0 -0.1 335.24 525.52)"  >
<path style="stroke: none; stroke-width: 1; stroke-dasharray: none; stroke-linecap: butt; stroke-dashoffset: 0; stroke-linejoin: miter; stroke-miterlimit: 4; fill: rgb(107,33,168); fill-rule: nonzero; opacity: 1;" vector-effect="non-scaling-stroke"  transform=" translate(-761.52, -971.69)" d="M 694 1036 C 689 1023 703 1003 746 959 C 803 902 830 887 830 913 C 830 920 801 954 765 990 C 711 1043 700 1051 694 1036 z" stroke-linecap="round" />
</g>
<g transform="matrix(0.1 0 0 -0.1 328.58 541.19)"  >
<path style="stroke: none; stroke-width: 1; stroke-dasharray: none; stroke-linecap: butt; stroke-dashoffset: 0; stroke-linejoin: miter; stroke-miterlimit: 4; fill: rgb(107,33,168); fill-rule: nonzero; opacity: 1;" vector-effect="non-scaling-stroke"  transform=" translate(-695, -815)" d="M 600 815 C 600 803 617 800 695 800 C 773 800 790 803 790 815 C 790 827 773 830 695 830 C 617 830 600 827 600 815 z" stroke-linecap="round" />
</g>
<g transform="matrix(0.1 0 0 -0.1 686.67 558.99)"  >
<path style="stroke: none; stroke-width: 1; stroke-dasharray: none; stroke-linecap: butt; stroke-dashoffset: 0; stroke-linejoin: miter; stroke-miterlimit: 4; fill: rgb(107,33,168); fill-rule: nonzero; opacity: 1;" vector-effect="non-scaling-stroke"  transform=" translate(-4671.59, -636.98)" d="M 4830 839 L 4830 688 L 4789 724 C 4670 825 4477 743 4439 575 C 4410 446 4492 319 4623 290 C 4692 274 4752 290 4797 335 L 4830 368 L 4830 334 C 4830 301 4831 300 4870 300 L 4910 300 L 4910 645 L 4910 990 L 4870 990 L 4830 990 L 4830 839 z M 4759 671 C 4805 638 4824 595 4825 524 C 4825 444 4792 390 4725 365 C 4686 350 4673 349 4637 359 C 4559 382 4510 447 4510 526 C 4510 659 4656 744 4759 671 z" stroke-linecap="round" />
</g>
<g transform="matrix(0.1 0 0 -0.1 515.36 535.21)"  >
<path style="stroke: none; stroke-width: 1; stroke-dasharray: none; stroke-linecap: butt; stroke-dashoffset: 0; stroke-linejoin: miter; stroke-miterlimit: 4; fill: rgb(107,33,168); fill-rule: nonzero; opacity: 1;" vector-effect="non-scaling-stroke"  transform=" translate(-2958.43, -874.82)" d="M 2925 900 C 2921 894 2921 878 2924 864 C 2930 843 2936 839 2963 842 C 2991 845 2995 849 2995 875 C 2995 901 2991 905 2963 908 C 2946 910 2929 906 2925 900 z" stroke-linecap="round" />
</g>
<g transform="matrix(0.1 0 0 -0.1 445.32 581.09)"  >
<path style="stroke: none; stroke-width: 1; stroke-dasharray: none; stroke-linecap: butt; stroke-dashoffset: 0; stroke-linejoin: miter; stroke-miterlimit: 4; fill: rgb(107,33,168); fill-rule: nonzero; opacity: 1;" vector-effect="non-scaling-stroke"  transform=" translate(-2258.06, -416.02)" d="M 2204 764 C 2192 761 2164 743 2141 724 L 2100 688 L 2100 724 C 2100 759 2099 760 2060 760 L 2020 760 L 2022 413 L 2025 65 L 2060 65 L 2095 65 L 2100 220 C 2103 305 2107 369 2108 363 C 2109 356 2129 337 2152 320 C 2237 258 2385 290 2450 385 C 2536 510 2498 675 2367 741 C 2328 761 2245 773 2204 764 z M 2349 667 C 2396 636 2420 587 2420 522 C 2420 430 2348 360 2252 360 C 2202 360 2194 363 2160 398 C 2012 546 2177 781 2349 667 z" stroke-linecap="round" />
</g>
<g transform="matrix(0.1 0 0 -0.1 491.27 569.21)"  >
<path style="stroke: none; stroke-width: 1; stroke-dasharray: none; stroke-linecap: butt; stroke-dashoffset: 0; stroke-linejoin: miter; stroke-miterlimit: 4; fill: rgb(107,33,168); fill-rule: nonzero; opacity: 1;" vector-effect="non-scaling-stroke"  transform=" translate(-2717.58, -534.74)" d="M 2740 754 C 2721 746 2695 729 2683 718 L 2660 697 L 2660 728 C 2660 758 2658 760 2625 760 L 2590 760 L 2590 530 L 2590 300 L 2625 300 L 2660 300 L 2660 456 L 2660 612 L 2699 651 C 2732 685 2744 690 2782 690 C 2822 690 2827 693 2837 721 C 2844 739 2847 757 2844 761 C 2836 775 2779 771 2740 754 z" stroke-linecap="round" />
</g>
<g transform="matrix(0.1 0 0 -0.1 567.01 569.54)"  >
<path style="stroke: none; stroke-width: 1; stroke-dasharray: none; stroke-linecap: butt; stroke-dashoffset: 0; stroke-linejoin: miter; stroke-miterlimit: 4; fill: rgb(107,33,168); fill-rule: nonzero; opacity: 1;" vector-effect="non-scaling-stroke"  transform=" translate(-3475, -531.48)" d="M 3276 760 C 3260 755 3235 739 3219 724 L 3192 698 L 3188 726 C 3185 752 3181 755 3150 755 L 3115 755 L 3112 528 L 3110 300 L 3150 300 L 3190 300 L 3190 453 C 3190 586 3192 609 3209 634 C 3235 673 3266 689 3315 689 C 3364 689 3395 673 3421 634 C 3438 609 3440 586 3440 453 L 3440 300 L 3475 300 L 3510 300 L 3510 433 C 3510 505 3515 582 3520 602 C 3552 715 3711 723 3756 614 C 3766 591 3770 537 3770 438 L 3770 295 L 3805 295 L 3840 295 L 3840 459 C 3840 606 3838 628 3819 668 C 3766 777 3614 802 3529 715 L 3495 681 L 3465 710 C 3411 762 3344 780 3276 760 z" stroke-linecap="round" />
</g>
<g transform="matrix(0.1 0 0 -0.1 633.91 570.12)"  >
<path style="stroke: none; stroke-width: 1; stroke-dasharray: none; stroke-linecap: butt; stroke-dashoffset: 0; stroke-linejoin: miter; stroke-miterlimit: 4; fill: rgb(107,33,168); fill-rule: nonzero; opacity: 1;" vector-effect="non-scaling-stroke"  transform=" translate(-4143.97, -525.7)" d="M 4071 757 C 4023 738 3963 685 3938 637 C 3909 583 3907 472 3934 420 C 3990 312 4095 263 4203 294 C 4245 306 4268 321 4306 362 L 4355 414 L 4315 426 C 4278 436 4274 435 4257 413 C 4199 340 4075 342 4021 418 C 4010 434 3998 458 3995 473 L 3988 500 L 4180 500 L 4373 500 L 4367 551 C 4358 623 4313 699 4258 733 C 4205 766 4123 776 4071 757 z M 4218 680 C 4255 657 4290 605 4290 573 C 4290 550 4289 550 4140 550 C 3972 550 3974 549 4010 619 C 4048 695 4146 724 4218 680 z" stroke-linecap="round" />
</g>
<g transform="matrix(0.1 0 0 -0.1 742.72 570.12)"  >
<path style="stroke: none; stroke-width: 1; stroke-dasharray: none; stroke-linecap: butt; stroke-dashoffset: 0; stroke-linejoin: miter; stroke-miterlimit: 4; fill: rgb(107,33,168); fill-rule: nonzero; opacity: 1;" vector-effect="non-scaling-stroke"  transform=" translate(-5232.02, -525.7)" d="M 5158 756 C 5079 728 5029 675 5004 593 C 4939 383 5208 186 5357 335 L 5390 368 L 5390 334 C 5390 301 5391 300 5430 300 L 5470 300 L 5470 530 L 5470 760 L 5435 760 C 5401 760 5400 759 5400 718 L 5400 676 L 5368 708 C 5307 766 5234 783 5158 756 z M 5319 673 C 5333 662 5355 634 5368 610 C 5435 477 5333 324 5200 360 C 5097 388 5038 509 5084 598 C 5104 636 5152 679 5186 690 C 5227 703 5289 695 5319 673 z" stroke-linecap="round" />
</g>
<g transform="matrix(0.1 0 0 -0.1 790.58 569.7)"  >
<path style="stroke: none; stroke-width: 1; stroke-dasharray: none; stroke-linecap: butt; stroke-dashoffset: 0; stroke-linejoin: miter; stroke-miterlimit: 4; fill: rgb(107,33,168); fill-rule: nonzero; opacity: 1;" vector-effect="non-scaling-stroke"  transform=" translate(-5710.68, -529.99)" d="M 5622 749 C 5573 724 5550 688 5550 633 C 5550 565 5591 531 5715 495 C 5787 475 5810 456 5810 418 C 5810 397 5802 385 5778 370 C 5726 339 5661 347 5614 391 C 5596 408 5589 409 5566 399 C 5534 384 5533 370 5563 342 C 5667 244 5880 296 5880 420 C 5880 487 5835 524 5697 570 C 5614 597 5594 624 5627 668 C 5665 718 5753 722 5803 676 C 5829 652 5837 653 5879 687 C 5888 694 5842 734 5805 751 C 5751 776 5676 775 5622 749 z" stroke-linecap="round" />
</g>
<g transform="matrix(0.1 0 0 -0.1 836.55 570.11)"  >
<path style="stroke: none; stroke-width: 1; stroke-dasharray: none; stroke-linecap: butt; stroke-dashoffset: 0; stroke-linejoin: miter; stroke-miterlimit: 4; fill: rgb(107,33,168); fill-rule: nonzero; opacity: 1;" vector-effect="non-scaling-stroke"  transform=" translate(-6170.37, -525.76)" d="M 6108 760 C 5982 722 5912 582 5952 448 C 5958 426 5984 386 6008 359 C 6096 261 6225 256 6321 349 C 6348 375 6370 402 6370 408 C 6370 414 6355 423 6338 428 C 6309 436 6303 434 6286 413 C 6225 334 6094 345 6040 432 C 5999 500 5998 500 6210 500 L 6400 500 L 6400 523 C 6400 581 6367 655 6321 701 C 6260 763 6185 783 6108 760 z M 6251 676 C 6286 652 6320 598 6320 566 C 6320 552 6301 550 6170 550 C 6021 550 6020 550 6020 573 C 6020 605 6055 657 6092 680 C 6139 708 6206 706 6251 676 z" stroke-linecap="round" />
</g>
<g transform="matrix(0.1 0 0 -0.1 515.51 569.75)"  >
<path style="stroke: none; stroke-width: 1; stroke-dasharray: none; stroke-linecap: butt; stroke-dashoffset: 0; stroke-linejoin: miter; stroke-miterlimit: 4; fill: rgb(107,33,168); fill-rule: nonzero; opacity: 1;" vector-effect="non-scaling-stroke"  transform=" translate(-2960, -529.39)" d="M 2927 754 C 2923 750 2920 646 2920 523 L 2920 300 L 2960 300 L 3000 300 L 2998 528 L 2995 755 L 2965 758 C 2948 760 2931 758 2927 754 z" stroke-linecap="round" />
</g>
<g transform="matrix(0.1 0 0 -0.1 303.57 604.5)"  >
<path style="stroke: none; stroke-width: 1; stroke-dasharray: none; stroke-linecap: butt; stroke-dashoffset: 0; stroke-linejoin: miter; stroke-miterlimit: 4; fill: rgb(107,33,168); fill-rule: nonzero; opacity: 1;" vector-effect="non-scaling-stroke"  transform=" translate(-444.88, -181.89)" d="M 287 354 C 275 342 279 12 291 4 C 297 1 334 30 376 71 L 450 144 L 518 77 C 555 40 591 10 598 10 C 607 10 610 54 610 186 C 610 348 609 361 593 358 C 577 355 575 340 575 217 C 575 142 573 80 570 80 C 568 80 540 106 508 137 L 450 194 L 385 130 L 321 66 L 318 210 C 315 344 308 375 287 354 z" stroke-linecap="round" />
</g>
<g transform="matrix(0.1 0 0 -0.1 352.93 603.23)"  >
<path style="stroke: none; stroke-width: 1; stroke-dasharray: none; stroke-linecap: butt; stroke-dashoffset: 0; stroke-linejoin: miter; stroke-miterlimit: 4; fill: rgb(107,33,168); fill-rule: nonzero; opacity: 1;" vector-effect="non-scaling-stroke"  transform=" translate(-938.43, -194.59)" d="M 655 200 C 652 194 655 188 662 185 C 688 175 1220 185 1223 195 C 1226 209 664 214 655 200 z" stroke-linecap="round" />
</g>
</svg>